<svg class="main-svg" xmlns="http://www.w3.org/2000/svg" xmlns:xlink="http://www.w3.org/1999/xlink" width="700" height="500" style="" viewBox="0 0 700 500"><rect x="0" y="0" width="700" height="500" style="fill: rgb(255, 255, 255); fill-opacity: 1;"/><defs id="defs-0ebf73"><g class="clips"><clipPath id="clip0ebf73xyplot" class="plotclip"><rect width="498" height="393"/></clipPath><clipPath class="axesclip" id="clip0ebf73x"><rect x="85" y="0" width="498" height="500"/></clipPath><clipPath class="axesclip" id="clip0ebf73y"><rect x="0" y="50" width="700" height="393"/></clipPath><clipPath class="axesclip" id="clip0ebf73xy"><rect x="85" y="50" width="498" height="393"/></clipPath></g><g class="gradients"/></defs><g class="bglayer"><rect class="bg" x="85" y="50" width="498" height="393" style="fill: rgb(234, 234, 242); fill-opacity: 1; stroke-width: 0;"/></g><g class="layer-below"><g class="imagelayer"/><g class="shapelayer"/></g><g class="cartesianlayer"><g class="subplot xy"><g class="layer-subplot"><g class="shapelayer"/><g class="imagelayer"/></g><g class="gridlayer"><g class="x"/><g class="y"/></g><g class="zerolinelayer"/><path class="xlines-below"/><path class="ylines-below"/><g class="overlines-below"/><g class="xaxislayer-below"/><g class="yaxislayer-below"/><g class="overaxes-below"/><g class="plot" transform="translate(85, 50)" clip-path="url('#clip0ebf73xyplot')"><g class="scatterlayer mlayer"><g class="trace scatter trace7ce053" style="stroke-miterlimit: 2; opacity: 1;"><g class="fills"/><g class="errorbars"/><g class="lines"><path class="js-line" d="M31.15,126.43L42.32,211.76L53.49,244.48L64.67,258.71L75.84,270.46L98.18,276.86L109.35,275.84L120.52,297.23L131.7,298.66L142.87,310.2L154.04,308.84L165.21,312.38L176.38,320.9L187.56,313.98L198.73,326.81L209.9,328.33L221.07,327.44L232.24,318.24L243.41,333.7" style="vector-effect: non-scaling-stroke; fill: none; stroke: rgb(175, 0, 56); stroke-opacity: 1; stroke-width: 2px; opacity: 1;"/></g><g class="points"><path class="point" transform="translate(31.15,126.43)" d="M5,0A5,5 0 1,1 0,-5A5,5 0 0,1 5,0Z" style="opacity: 1; stroke-width: 0px; fill: rgb(175, 0, 56); fill-opacity: 1;"/><path class="point" transform="translate(53.49,244.48)" d="M5,0A5,5 0 1,1 0,-5A5,5 0 0,1 5,0Z" style="opacity: 1; stroke-width: 0px; fill: rgb(175, 0, 56); fill-opacity: 1;"/><path class="point" transform="translate(75.84,270.46)" d="M5,0A5,5 0 1,1 0,-5A5,5 0 0,1 5,0Z" style="opacity: 1; stroke-width: 0px; fill: rgb(175, 0, 56); fill-opacity: 1;"/><path class="point" transform="translate(98.18,276.86)" d="M5,0A5,5 0 1,1 0,-5A5,5 0 0,1 5,0Z" style="opacity: 1; stroke-width: 0px; fill: rgb(175, 0, 56); fill-opacity: 1;"/><path class="point" transform="translate(120.52,297.23)" d="M5,0A5,5 0 1,1 0,-5A5,5 0 0,1 5,0Z" style="opacity: 1; stroke-width: 0px; fill: rgb(175, 0, 56); fill-opacity: 1;"/><path class="point" transform="translate(142.87,310.2)" d="M5,0A5,5 0 1,1 0,-5A5,5 0 0,1 5,0Z" style="opacity: 1; stroke-width: 0px; fill: rgb(175, 0, 56); fill-opacity: 1;"/><path class="point" transform="translate(165.21,312.38)" d="M5,0A5,5 0 1,1 0,-5A5,5 0 0,1 5,0Z" style="opacity: 1; stroke-width: 0px; fill: rgb(175, 0, 56); fill-opacity: 1;"/><path class="point" transform="translate(187.56,313.98)" d="M5,0A5,5 0 1,1 0,-5A5,5 0 0,1 5,0Z" style="opacity: 1; stroke-width: 0px; fill: rgb(175, 0, 56); fill-opacity: 1;"/><path class="point" transform="translate(209.9,328.33)" d="M5,0A5,5 0 1,1 0,-5A5,5 0 0,1 5,0Z" style="opacity: 1; stroke-width: 0px; fill: rgb(175, 0, 56); fill-opacity: 1;"/><path class="point" transform="translate(232.24,318.24)" d="M5,0A5,5 0 1,1 0,-5A5,5 0 0,1 5,0Z" style="opacity: 1; stroke-width: 0px; fill: rgb(175, 0, 56); fill-opacity: 1;"/></g><g class="text"/></g><g class="trace scatter tracea71007" style="stroke-miterlimit: 2; opacity: 1;"><g class="fills"/><g class="errorbars"/><g class="lines"><path class="js-line" d="M31.15,167.3L42.32,215.82L53.49,242.28L64.67,257.58L75.84,267.75L87.01,277.98L98.18,278.72L109.35,285.64L120.52,291.26L131.7,299.56L142.87,298.88L154.04,305.59L165.21,304.62L176.38,308.47L187.56,309.16L198.73,317.85L209.9,308.56L221.07,324.6L232.24,312.82L243.41,327.64" style="vector-effect: non-scaling-stroke; fill: none; stroke: rgb(13, 42, 99); stroke-opacity: 1; stroke-width: 2px; opacity: 1;"/></g><g class="points"><path class="point" transform="translate(42.32,215.82)" d="M5,5H-5V-5H5Z" style="opacity: 1; stroke-width: 0px; fill: rgb(13, 42, 99); fill-opacity: 1;"/><path class="point" transform="translate(64.67,257.58)" d="M5,5H-5V-5H5Z" style="opacity: 1; stroke-width: 0px; fill: rgb(13, 42, 99); fill-opacity: 1;"/><path class="point" transform="translate(87.01,277.98)" d="M5,5H-5V-5H5Z" style="opacity: 1; stroke-width: 0px; fill: rgb(13, 42, 99); fill-opacity: 1;"/><path class="point" transform="translate(109.35,285.64)" d="M5,5H-5V-5H5Z" style="opacity: 1; stroke-width: 0px; fill: rgb(13, 42, 99); fill-opacity: 1;"/><path class="point" transform="translate(131.7,299.56)" d="M5,5H-5V-5H5Z" style="opacity: 1; stroke-width: 0px; fill: rgb(13, 42, 99); fill-opacity: 1;"/><path class="point" transform="translate(154.04,305.59)" d="M5,5H-5V-5H5Z" style="opacity: 1; stroke-width: 0px; fill: rgb(13, 42, 99); fill-opacity: 1;"/><path class="point" transform="translate(176.38,308.47)" d="M5,5H-5V-5H5Z" style="opacity: 1; stroke-width: 0px; fill: rgb(13, 42, 99); fill-opacity: 1;"/><path class="point" transform="translate(198.73,317.85)" d="M5,5H-5V-5H5Z" style="opacity: 1; stroke-width: 0px; fill: rgb(13, 42, 99); fill-opacity: 1;"/><path class="point" transform="translate(221.07,324.6)" d="M5,5H-5V-5H5Z" style="opacity: 1; stroke-width: 0px; fill: rgb(13, 42, 99); fill-opacity: 1;"/><path class="point" transform="translate(243.41,327.64)" d="M5,5H-5V-5H5Z" style="opacity: 1; stroke-width: 0px; fill: rgb(13, 42, 99); fill-opacity: 1;"/></g><g class="text"/></g><g class="trace scatter tracea8726b" style="stroke-miterlimit: 2; opacity: 1;"><g class="fills"/><g class="errorbars"/><g class="lines"><path class="js-line" d="M31.15,105.71L42.32,188.43L53.49,223.88L64.67,247.99L75.84,262.01L87.01,269.22L98.18,271.09L109.35,258.7L120.52,286.57L131.7,292.75L142.87,296.51L165.21,304.9L176.38,305.38L221.07,318.56L232.24,313.49L243.41,325.85" style="vector-effect: non-scaling-stroke; fill: none; stroke: rgb(108, 69, 22); stroke-opacity: 1; stroke-width: 2px; opacity: 1;"/></g><g class="points"><path class="point" transform="translate(42.32,188.43)" d="M6.5,0L0,6.5L-6.5,0L0,-6.5Z" style="opacity: 1; stroke-width: 0px; fill: rgb(108, 69, 22); fill-opacity: 1;"/><path class="point" transform="translate(64.67,247.99)" d="M6.5,0L0,6.5L-6.5,0L0,-6.5Z" style="opacity: 1; stroke-width: 0px; fill: rgb(108, 69, 22); fill-opacity: 1;"/><path class="point" transform="translate(87.01,269.22)" d="M6.5,0L0,6.5L-6.5,0L0,-6.5Z" style="opacity: 1; stroke-width: 0px; fill: rgb(108, 69, 22); fill-opacity: 1;"/><path class="point" transform="translate(109.35,258.7)" d="M6.5,0L0,6.5L-6.5,0L0,-6.5Z" style="opacity: 1; stroke-width: 0px; fill: rgb(108, 69, 22); fill-opacity: 1;"/><path class="point" transform="translate(131.7,292.75)" d="M6.5,0L0,6.5L-6.5,0L0,-6.5Z" style="opacity: 1; stroke-width: 0px; fill: rgb(108, 69, 22); fill-opacity: 1;"/><path class="point" transform="translate(154.04,300.96)" d="M6.5,0L0,6.5L-6.5,0L0,-6.5Z" style="opacity: 1; stroke-width: 0px; fill: rgb(108, 69, 22); fill-opacity: 1;"/><path class="point" transform="translate(176.38,305.38)" d="M6.5,0L0,6.5L-6.5,0L0,-6.5Z" style="opacity: 1; stroke-width: 0px; fill: rgb(108, 69, 22); fill-opacity: 1;"/><path class="point" transform="translate(198.73,312.34)" d="M6.5,0L0,6.5L-6.5,0L0,-6.5Z" style="opacity: 1; stroke-width: 0px; fill: rgb(108, 69, 22); fill-opacity: 1;"/><path class="point" transform="translate(221.07,318.56)" d="M6.5,0L0,6.5L-6.5,0L0,-6.5Z" style="opacity: 1; stroke-width: 0px; fill: rgb(108, 69, 22); fill-opacity: 1;"/><path class="point" transform="translate(243.41,325.85)" d="M6.5,0L0,6.5L-6.5,0L0,-6.5Z" style="opacity: 1; stroke-width: 0px; fill: rgb(108, 69, 22); fill-opacity: 1;"/></g><g class="text"/></g><g class="trace scatter trace3751bc" style="stroke-miterlimit: 2; opacity: 1;"><g class="fills"/><g class="errorbars"/><g class="lines"><path class="js-line" d="M31.15,121.56L42.32,196.25L53.49,231.83L64.67,249L75.84,264.01L87.01,269.56L98.18,286.53L109.35,284.05L120.52,296.03L131.7,302.05L142.87,311.63L154.04,313.04L165.21,315.86L176.38,316.6L187.56,322.37L198.73,320.84L209.9,324.76L221.07,339.19L232.24,329.49L243.41,338.19" style="vector-effect: non-scaling-stroke; fill: none; stroke: rgb(218, 96, 202); stroke-opacity: 1; stroke-width: 2px; opacity: 1;"/></g><g class="points"><path class="point" transform="translate(31.15,121.56)" d="M6,2H2V6H-2V2H-6V-2H-2V-6H2V-2H6Z" style="opacity: 1; stroke-width: 0px; fill: rgb(218, 96, 202); fill-opacity: 1;"/><path class="point" transform="translate(53.49,231.83)" d="M6,2H2V6H-2V2H-6V-2H-2V-6H2V-2H6Z" style="opacity: 1; stroke-width: 0px; fill: rgb(218, 96, 202); fill-opacity: 1;"/><path class="point" transform="translate(75.84,264.01)" d="M6,2H2V6H-2V2H-6V-2H-2V-6H2V-2H6Z" style="opacity: 1; stroke-width: 0px; fill: rgb(218, 96, 202); fill-opacity: 1;"/><path class="point" transform="translate(98.18,286.53)" d="M6,2H2V6H-2V2H-6V-2H-2V-6H2V-2H6Z" style="opacity: 1; stroke-width: 0px; fill: rgb(218, 96, 202); fill-opacity: 1;"/><path class="point" transform="translate(120.52,296.03)" d="M6,2H2V6H-2V2H-6V-2H-2V-6H2V-2H6Z" style="opacity: 1; stroke-width: 0px; fill: rgb(218, 96, 202); fill-opacity: 1;"/><path class="point" transform="translate(142.87,311.63)" d="M6,2H2V6H-2V2H-6V-2H-2V-6H2V-2H6Z" style="opacity: 1; stroke-width: 0px; fill: rgb(218, 96, 202); fill-opacity: 1;"/><path class="point" transform="translate(165.21,315.86)" d="M6,2H2V6H-2V2H-6V-2H-2V-6H2V-2H6Z" style="opacity: 1; stroke-width: 0px; fill: rgb(218, 96, 202); fill-opacity: 1;"/><path class="point" transform="translate(187.56,322.37)" d="M6,2H2V6H-2V2H-6V-2H-2V-6H2V-2H6Z" style="opacity: 1; stroke-width: 0px; fill: rgb(218, 96, 202); fill-opacity: 1;"/><path class="point" transform="translate(209.9,324.76)" d="M6,2H2V6H-2V2H-6V-2H-2V-6H2V-2H6Z" style="opacity: 1; stroke-width: 0px; fill: rgb(218, 96, 202); fill-opacity: 1;"/><path class="point" transform="translate(232.24,329.49)" d="M6,2H2V6H-2V2H-6V-2H-2V-6H2V-2H6Z" style="opacity: 1; stroke-width: 0px; fill: rgb(218, 96, 202); fill-opacity: 1;"/></g><g class="text"/></g><g class="trace scatter tracee0b20b" style="stroke-miterlimit: 2; opacity: 1;"><g class="fills"/><g class="errorbars"/><g class="lines"><path class="js-line" d="M31.15,62.32L42.32,180.63L53.49,214.05L64.67,244.51L75.84,261.8L87.01,272.65L98.18,276.37L109.35,288.85L120.52,298.52L131.7,305.4L142.87,309.51L154.04,309.72L165.21,317.61L176.38,316.81L187.56,322.79L209.9,332.41L221.07,340.39L232.24,338.59L243.41,340.59L254.59,343.91L265.76,345.06L276.93,340.91L288.1,344.46L299.27,352.59L310.44,347.13L321.62,344.94L332.79,356.86L343.96,348.85L355.13,353.19L366.3,357.14L377.48,355.62L388.65,355.81L399.82,340.19L410.99,360.03L422.16,357.51L433.33,363.3L444.51,360.84L455.68,367.1L466.85,364.22" style="vector-effect: non-scaling-stroke; fill: none; stroke: rgb(22, 22, 167); stroke-opacity: 1; stroke-width: 2px; opacity: 1;"/></g><g class="points"><path class="point" transform="translate(53.49,214.05)" d="M0,2.83l2.83,2.83l2.83,-2.83l-2.83,-2.83l2.83,-2.83l-2.83,-2.83l-2.83,2.83l-2.83,-2.83l-2.83,2.83l2.83,2.83l-2.83,2.83l2.83,2.83Z" style="opacity: 1; stroke-width: 0px; fill: rgb(22, 22, 167); fill-opacity: 1;"/><path class="point" transform="translate(98.18,276.37)" d="M0,2.83l2.83,2.83l2.83,-2.83l-2.83,-2.83l2.83,-2.83l-2.83,-2.83l-2.83,2.83l-2.83,-2.83l-2.83,2.83l2.83,2.83l-2.83,2.83l2.83,2.83Z" style="opacity: 1; stroke-width: 0px; fill: rgb(22, 22, 167); fill-opacity: 1;"/><path class="point" transform="translate(142.87,309.51)" d="M0,2.83l2.83,2.83l2.83,-2.83l-2.83,-2.83l2.83,-2.83l-2.83,-2.83l-2.83,2.83l-2.83,-2.83l-2.83,2.83l2.83,2.83l-2.83,2.83l2.83,2.83Z" style="opacity: 1; stroke-width: 0px; fill: rgb(22, 22, 167); fill-opacity: 1;"/><path class="point" transform="translate(187.56,322.79)" d="M0,2.83l2.83,2.83l2.83,-2.83l-2.83,-2.83l2.83,-2.83l-2.83,-2.83l-2.83,2.83l-2.83,-2.83l-2.83,2.83l2.83,2.83l-2.83,2.83l2.83,2.83Z" style="opacity: 1; stroke-width: 0px; fill: rgb(22, 22, 167); fill-opacity: 1;"/><path class="point" transform="translate(232.24,338.59)" d="M0,2.83l2.83,2.83l2.83,-2.83l-2.83,-2.83l2.83,-2.83l-2.83,-2.83l-2.83,2.83l-2.83,-2.83l-2.83,2.83l2.83,2.83l-2.83,2.83l2.83,2.83Z" style="opacity: 1; stroke-width: 0px; fill: rgb(22, 22, 167); fill-opacity: 1;"/><path class="point" transform="translate(276.93,340.91)" d="M0,2.83l2.83,2.83l2.83,-2.83l-2.83,-2.83l2.83,-2.83l-2.83,-2.83l-2.83,2.83l-2.83,-2.83l-2.83,2.83l2.83,2.83l-2.83,2.83l2.83,2.83Z" style="opacity: 1; stroke-width: 0px; fill: rgb(22, 22, 167); fill-opacity: 1;"/><path class="point" transform="translate(321.62,344.94)" d="M0,2.83l2.83,2.83l2.83,-2.83l-2.83,-2.83l2.83,-2.83l-2.83,-2.83l-2.83,2.83l-2.83,-2.83l-2.83,2.83l2.83,2.83l-2.83,2.83l2.83,2.83Z" style="opacity: 1; stroke-width: 0px; fill: rgb(22, 22, 167); fill-opacity: 1;"/><path class="point" transform="translate(366.3,357.14)" d="M0,2.83l2.83,2.83l2.83,-2.83l-2.83,-2.83l2.83,-2.83l-2.83,-2.83l-2.83,2.83l-2.83,-2.83l-2.83,2.83l2.83,2.83l-2.83,2.83l2.83,2.83Z" style="opacity: 1; stroke-width: 0px; fill: rgb(22, 22, 167); fill-opacity: 1;"/><path class="point" transform="translate(410.99,360.03)" d="M0,2.83l2.83,2.83l2.83,-2.83l-2.83,-2.83l2.83,-2.83l-2.83,-2.83l-2.83,2.83l-2.83,-2.83l-2.83,2.83l2.83,2.83l-2.83,2.83l2.83,2.83Z" style="opacity: 1; stroke-width: 0px; fill: rgb(22, 22, 167); fill-opacity: 1;"/><path class="point" transform="translate(455.68,367.1)" d="M0,2.83l2.83,2.83l2.83,-2.83l-2.83,-2.83l2.83,-2.83l-2.83,-2.83l-2.83,2.83l-2.83,-2.83l-2.83,2.83l2.83,2.83l-2.83,2.83l2.83,2.83Z" style="opacity: 1; stroke-width: 0px; fill: rgb(22, 22, 167); fill-opacity: 1;"/></g><g class="text"/></g><g class="trace scatter trace276b76" style="stroke-miterlimit: 2; opacity: 1;"><g class="fills"/><g class="errorbars"/><g class="lines"><path class="js-line" d="M31.15,134.72L42.32,170.34L53.49,193.49L64.67,202.51L75.84,223.85L87.01,222.04L98.18,227.99L109.35,274.38L120.52,278.64L131.7,275.23L142.87,289.7L154.04,283.76L165.21,298.27L176.38,301.08L187.56,291L198.73,300.6L209.9,301.25L221.07,298.15L232.24,307.83L243.41,307L254.59,302.32L265.76,310.13L276.93,300.75L288.1,316.68L299.27,318.06L310.44,307.49L321.62,312.13L332.79,326.28L343.96,324.29L355.13,321.87L366.3,330.26L377.48,317.39L388.65,322.75L399.82,322.98L410.99,321.09L422.16,328.2L433.33,328.65L444.51,326.33L455.68,325.44L466.85,328.69" style="vector-effect: non-scaling-stroke; fill: none; stroke: rgb(98, 0, 66); stroke-opacity: 1; stroke-width: 2px; opacity: 1;"/></g><g class="points"><path class="point" transform="translate(42.32,170.34)" d="M-5.77,2.5H5.77L0,-5Z" style="opacity: 1; stroke-width: 0px; fill: rgb(98, 0, 66); fill-opacity: 1;"/><path class="point" transform="translate(87.01,222.04)" d="M-5.77,2.5H5.77L0,-5Z" style="opacity: 1; stroke-width: 0px; fill: rgb(98, 0, 66); fill-opacity: 1;"/><path class="point" transform="translate(131.7,275.23)" d="M-5.77,2.5H5.77L0,-5Z" style="opacity: 1; stroke-width: 0px; fill: rgb(98, 0, 66); fill-opacity: 1;"/><path class="point" transform="translate(176.38,301.08)" d="M-5.77,2.5H5.77L0,-5Z" style="opacity: 1; stroke-width: 0px; fill: rgb(98, 0, 66); fill-opacity: 1;"/><path class="point" transform="translate(221.07,298.15)" d="M-5.77,2.5H5.77L0,-5Z" style="opacity: 1; stroke-width: 0px; fill: rgb(98, 0, 66); fill-opacity: 1;"/><path class="point" transform="translate(265.76,310.13)" d="M-5.77,2.5H5.77L0,-5Z" style="opacity: 1; stroke-width: 0px; fill: rgb(98, 0, 66); fill-opacity: 1;"/><path class="point" transform="translate(310.44,307.49)" d="M-5.77,2.5H5.77L0,-5Z" style="opacity: 1; stroke-width: 0px; fill: rgb(98, 0, 66); fill-opacity: 1;"/><path class="point" transform="translate(355.13,321.87)" d="M-5.77,2.5H5.77L0,-5Z" style="opacity: 1; stroke-width: 0px; fill: rgb(98, 0, 66); fill-opacity: 1;"/><path class="point" transform="translate(399.82,322.98)" d="M-5.77,2.5H5.77L0,-5Z" style="opacity: 1; stroke-width: 0px; fill: rgb(98, 0, 66); fill-opacity: 1;"/><path class="point" transform="translate(444.51,326.33)" d="M-5.77,2.5H5.77L0,-5Z" style="opacity: 1; stroke-width: 0px; fill: rgb(98, 0, 66); fill-opacity: 1;"/></g><g class="text"/></g><g class="trace scatter trace9729cd" style="stroke-miterlimit: 2; opacity: 1;"><g class="fills"/><g class="errorbars"/><g class="lines"><path class="js-line" d="M31.15,139.67L42.32,198.29L53.49,234.41L75.84,259.37L87.01,275.02L98.18,274.89L109.35,278.75L120.52,289.89L131.7,290.82L142.87,296.78L154.04,295.36L165.21,303.43L176.38,297.98L187.56,303.59L198.73,293.82L209.9,304.91L221.07,309.38L232.24,318.89L243.41,307.49L254.59,318.25L265.76,305.96L276.93,318.35L288.1,315.88L310.44,318.71L321.62,320.01L332.79,323.37L343.96,330.89" style="vector-effect: non-scaling-stroke; fill: none; stroke: rgb(167, 119, 241); stroke-opacity: 1; stroke-width: 2px; opacity: 1;"/></g><g class="points"><path class="point" transform="translate(53.49,234.41)" d="M-5.77,-2.5H5.77L0,5Z" style="opacity: 1; stroke-width: 0px; fill: rgb(167, 119, 241); fill-opacity: 1;"/><path class="point" transform="translate(87.01,275.02)" d="M-5.77,-2.5H5.77L0,5Z" style="opacity: 1; stroke-width: 0px; fill: rgb(167, 119, 241); fill-opacity: 1;"/><path class="point" transform="translate(120.52,289.89)" d="M-5.77,-2.5H5.77L0,5Z" style="opacity: 1; stroke-width: 0px; fill: rgb(167, 119, 241); fill-opacity: 1;"/><path class="point" transform="translate(154.04,295.36)" d="M-5.77,-2.5H5.77L0,5Z" style="opacity: 1; stroke-width: 0px; fill: rgb(167, 119, 241); fill-opacity: 1;"/><path class="point" transform="translate(187.56,303.59)" d="M-5.77,-2.5H5.77L0,5Z" style="opacity: 1; stroke-width: 0px; fill: rgb(167, 119, 241); fill-opacity: 1;"/><path class="point" transform="translate(221.07,309.38)" d="M-5.77,-2.5H5.77L0,5Z" style="opacity: 1; stroke-width: 0px; fill: rgb(167, 119, 241); fill-opacity: 1;"/><path class="point" transform="translate(254.59,318.25)" d="M-5.77,-2.5H5.77L0,5Z" style="opacity: 1; stroke-width: 0px; fill: rgb(167, 119, 241); fill-opacity: 1;"/><path class="point" transform="translate(288.1,315.88)" d="M-5.77,-2.5H5.77L0,5Z" style="opacity: 1; stroke-width: 0px; fill: rgb(167, 119, 241); fill-opacity: 1;"/><path class="point" transform="translate(321.62,320.01)" d="M-5.77,-2.5H5.77L0,5Z" style="opacity: 1; stroke-width: 0px; fill: rgb(167, 119, 241); fill-opacity: 1;"/></g><g class="text"/></g><g class="trace scatter tracea70ed3" style="stroke-miterlimit: 2; opacity: 1;"><g class="fills"/><g class="errorbars"/><g class="lines"><path class="js-line" d="M31.15,126.29L42.32,201.14L53.49,226.47L64.67,233.63L75.84,258.41L87.01,270.85L98.18,277.28L109.35,283.56L120.52,288.94L131.7,284.85L142.87,297.57L154.04,298.68L165.21,304.45L176.38,305.49L187.56,312.76L198.73,317.02L209.9,305.57L221.07,314.85L232.24,317.01L243.41,326.53L254.59,321.47L265.76,318.64L276.93,322.3L288.1,324.22L299.27,320.07L310.44,329.42L321.62,335.66L332.79,324.77L343.96,333.08L355.13,318.59L366.3,332.16L377.48,327.96L388.65,340.81L399.82,338.35L410.99,344.39L422.16,336.66L433.33,338.96L444.51,336.34L455.68,336.11L466.85,338.85" style="vector-effect: non-scaling-stroke; fill: none; stroke: rgb(134, 42, 22); stroke-opacity: 1; stroke-width: 2px; opacity: 1;"/></g><g class="points"><path class="point" transform="translate(53.49,226.47)" d="M2.5,-5.77V5.77L-5,0Z" style="opacity: 1; stroke-width: 0px; fill: rgb(134, 42, 22); fill-opacity: 1;"/><path class="point" transform="translate(98.18,277.28)" d="M2.5,-5.77V5.77L-5,0Z" style="opacity: 1; stroke-width: 0px; fill: rgb(134, 42, 22); fill-opacity: 1;"/><path class="point" transform="translate(142.87,297.57)" d="M2.5,-5.77V5.77L-5,0Z" style="opacity: 1; stroke-width: 0px; fill: rgb(134, 42, 22); fill-opacity: 1;"/><path class="point" transform="translate(187.56,312.76)" d="M2.5,-5.77V5.77L-5,0Z" style="opacity: 1; stroke-width: 0px; fill: rgb(134, 42, 22); fill-opacity: 1;"/><path class="point" transform="translate(232.24,317.01)" d="M2.5,-5.77V5.77L-5,0Z" style="opacity: 1; stroke-width: 0px; fill: rgb(134, 42, 22); fill-opacity: 1;"/><path class="point" transform="translate(276.93,322.3)" d="M2.5,-5.77V5.77L-5,0Z" style="opacity: 1; stroke-width: 0px; fill: rgb(134, 42, 22); fill-opacity: 1;"/><path class="point" transform="translate(321.62,335.66)" d="M2.5,-5.77V5.77L-5,0Z" style="opacity: 1; stroke-width: 0px; fill: rgb(134, 42, 22); fill-opacity: 1;"/><path class="point" transform="translate(366.3,332.16)" d="M2.5,-5.77V5.77L-5,0Z" style="opacity: 1; stroke-width: 0px; fill: rgb(134, 42, 22); fill-opacity: 1;"/><path class="point" transform="translate(410.99,344.39)" d="M2.5,-5.77V5.77L-5,0Z" style="opacity: 1; stroke-width: 0px; fill: rgb(134, 42, 22); fill-opacity: 1;"/><path class="point" transform="translate(455.68,336.11)" d="M2.5,-5.77V5.77L-5,0Z" style="opacity: 1; stroke-width: 0px; fill: rgb(134, 42, 22); fill-opacity: 1;"/></g><g class="text"/></g><g class="trace scatter tracedbc461" style="stroke-miterlimit: 2; opacity: 1;"><g class="fills"/><g class="errorbars"/><g class="lines"><path class="js-line" d="M31.15,92.26L42.32,172.97L53.49,207.27L64.67,234.21L75.84,256.2L87.01,268.04L98.18,274.73L109.35,281.58L120.52,286.8L131.7,297.17L142.87,309.18L154.04,306.67L165.21,304.97L176.38,317.72L187.56,320.25L198.73,316.64L209.9,326.55L221.07,333.95L232.24,331.15L243.41,337.63L254.59,332.8L265.76,340.17L276.93,342.57L288.1,342.01L299.27,339.76L310.44,337.54L321.62,340.17L332.79,344.19L343.96,336.47L355.13,349.2L366.3,351.64L377.48,348.71L388.65,352.04L399.82,358.62L410.99,360.87L422.16,355.33L433.33,356.94L444.51,358.19L455.68,354.47L466.85,359.41" style="vector-effect: non-scaling-stroke; fill: none; stroke: rgb(119, 138, 174); stroke-opacity: 1; stroke-width: 2px; opacity: 1;"/></g><g class="points"><path class="point" transform="translate(31.15,92.26)" d="M-2.5,-5.77V5.77L5,0Z" style="opacity: 1; stroke-width: 0px; fill: rgb(119, 138, 174); fill-opacity: 1;"/><path class="point" transform="translate(75.84,256.2)" d="M-2.5,-5.77V5.77L5,0Z" style="opacity: 1; stroke-width: 0px; fill: rgb(119, 138, 174); fill-opacity: 1;"/><path class="point" transform="translate(120.52,286.8)" d="M-2.5,-5.77V5.77L5,0Z" style="opacity: 1; stroke-width: 0px; fill: rgb(119, 138, 174); fill-opacity: 1;"/><path class="point" transform="translate(165.21,304.97)" d="M-2.5,-5.77V5.77L5,0Z" style="opacity: 1; stroke-width: 0px; fill: rgb(119, 138, 174); fill-opacity: 1;"/><path class="point" transform="translate(209.9,326.55)" d="M-2.5,-5.77V5.77L5,0Z" style="opacity: 1; stroke-width: 0px; fill: rgb(119, 138, 174); fill-opacity: 1;"/><path class="point" transform="translate(254.59,332.8)" d="M-2.5,-5.77V5.77L5,0Z" style="opacity: 1; stroke-width: 0px; fill: rgb(119, 138, 174); fill-opacity: 1;"/><path class="point" transform="translate(299.27,339.76)" d="M-2.5,-5.77V5.77L5,0Z" style="opacity: 1; stroke-width: 0px; fill: rgb(119, 138, 174); fill-opacity: 1;"/><path class="point" transform="translate(343.96,336.47)" d="M-2.5,-5.77V5.77L5,0Z" style="opacity: 1; stroke-width: 0px; fill: rgb(119, 138, 174); fill-opacity: 1;"/><path class="point" transform="translate(388.65,352.04)" d="M-2.5,-5.77V5.77L5,0Z" style="opacity: 1; stroke-width: 0px; fill: rgb(119, 138, 174); fill-opacity: 1;"/><path class="point" transform="translate(433.33,356.94)" d="M-2.5,-5.77V5.77L5,0Z" style="opacity: 1; stroke-width: 0px; fill: rgb(119, 138, 174); fill-opacity: 1;"/></g><g class="text"/></g><g class="trace scatter trace742a2d" style="stroke-miterlimit: 2; opacity: 1;"><g class="fills"/><g class="errorbars"/><g class="lines"><path class="js-line" d="M31.15,25.9L42.32,106.39L53.49,175.41L64.67,202.6L75.84,220.46L87.01,242.15L98.18,258.45L109.35,270.14L120.52,269.86L131.7,274.38L142.87,283.41L154.04,288.28L165.21,288.87L176.38,289.49L187.56,293.39L198.73,294.86L209.9,292.22L221.07,301.45L232.24,301.94L243.41,310.78L254.59,310.53L265.76,310.01L276.93,311.33L288.1,315.27L299.27,313.7L310.44,311.2L321.62,319.47L332.79,319.06L343.96,320.74L355.13,317.9L366.3,321.03L377.48,326.04L388.65,326.15L399.82,326.57L410.99,325.71L422.16,325.81L433.33,329.19L444.51,328.92L455.68,330.32L466.85,331.95" style="vector-effect: non-scaling-stroke; fill: none; stroke: rgb(108, 124, 50); stroke-opacity: 1; stroke-width: 2px; opacity: 1;"/></g><g class="points"><path class="point" transform="translate(53.49,175.41)" d="M-6,-3H3V6Z" style="opacity: 1; stroke-width: 0px; fill: rgb(108, 124, 50); fill-opacity: 1;"/><path class="point" transform="translate(98.18,258.45)" d="M-6,-3H3V6Z" style="opacity: 1; stroke-width: 0px; fill: rgb(108, 124, 50); fill-opacity: 1;"/><path class="point" transform="translate(142.87,283.41)" d="M-6,-3H3V6Z" style="opacity: 1; stroke-width: 0px; fill: rgb(108, 124, 50); fill-opacity: 1;"/><path class="point" transform="translate(187.56,293.39)" d="M-6,-3H3V6Z" style="opacity: 1; stroke-width: 0px; fill: rgb(108, 124, 50); fill-opacity: 1;"/><path class="point" transform="translate(232.24,301.94)" d="M-6,-3H3V6Z" style="opacity: 1; stroke-width: 0px; fill: rgb(108, 124, 50); fill-opacity: 1;"/><path class="point" transform="translate(276.93,311.33)" d="M-6,-3H3V6Z" style="opacity: 1; stroke-width: 0px; fill: rgb(108, 124, 50); fill-opacity: 1;"/><path class="point" transform="translate(321.62,319.47)" d="M-6,-3H3V6Z" style="opacity: 1; stroke-width: 0px; fill: rgb(108, 124, 50); fill-opacity: 1;"/><path class="point" transform="translate(366.3,321.03)" d="M-6,-3H3V6Z" style="opacity: 1; stroke-width: 0px; fill: rgb(108, 124, 50); fill-opacity: 1;"/><path class="point" transform="translate(410.99,325.71)" d="M-6,-3H3V6Z" style="opacity: 1; stroke-width: 0px; fill: rgb(108, 124, 50); fill-opacity: 1;"/><path class="point" transform="translate(455.68,330.32)" d="M-6,-3H3V6Z" style="opacity: 1; stroke-width: 0px; fill: rgb(108, 124, 50); fill-opacity: 1;"/></g><g class="text"/></g></g></g><g class="overplot"/><path class="xlines-above crisp" d="M84,443.5H583" style="fill: none; stroke-width: 1px; stroke: rgb(255, 255, 255); stroke-opacity: 1;"/><path class="ylines-above crisp" d="M84.5,50V443" style="fill: none; stroke-width: 1px; stroke: rgb(255, 255, 255); stroke-opacity: 1;"/><g class="overlines-above"/><g class="xaxislayer-above"><g class="xtick"><text text-anchor="middle" x="0" y="465.6" transform="translate(116.15,0)" style="font-family: 'Times New Roman'; font-size: 18px; fill: rgb(36, 36, 36); fill-opacity: 1; white-space: pre;">0</text></g><g class="xtick"><text text-anchor="middle" x="0" y="465.6" transform="translate(227.87,0)" style="font-family: 'Times New Roman'; font-size: 18px; fill: rgb(36, 36, 36); fill-opacity: 1; white-space: pre;">10</text></g><g class="xtick"><text text-anchor="middle" x="0" y="465.6" transform="translate(339.59000000000003,0)" style="font-family: 'Times New Roman'; font-size: 18px; fill: rgb(36, 36, 36); fill-opacity: 1; white-space: pre;">20</text></g><g class="xtick"><text text-anchor="middle" x="0" y="465.6" transform="translate(451.3,0)" style="font-family: 'Times New Roman'; font-size: 18px; fill: rgb(36, 36, 36); fill-opacity: 1; white-space: pre;">30</text></g><g class="xtick"><text text-anchor="middle" x="0" y="465.6" transform="translate(563.02,0)" style="font-family: 'Times New Roman'; font-size: 18px; fill: rgb(36, 36, 36); fill-opacity: 1; white-space: pre;">40</text></g></g><g class="yaxislayer-above"><g class="ytick"><text text-anchor="end" x="80.4" y="6.3" transform="translate(0,387.66)" style="font-family: 'Times New Roman'; font-size: 18px; fill: rgb(36, 36, 36); fill-opacity: 1; white-space: pre;">0.0008</text></g><g class="ytick"><text text-anchor="end" x="80.4" y="6.3" transform="translate(0,337.34)" style="font-family: 'Times New Roman'; font-size: 18px; fill: rgb(36, 36, 36); fill-opacity: 1; white-space: pre;">0.001</text></g><g class="ytick"><text text-anchor="end" x="80.4" y="6.3" transform="translate(0,296.23)" style="font-family: 'Times New Roman'; font-size: 18px; fill: rgb(36, 36, 36); fill-opacity: 1; white-space: pre;">0.0012</text></g><g class="ytick"><text text-anchor="end" x="80.4" y="6.3" transform="translate(0,261.46000000000004)" style="font-family: 'Times New Roman'; font-size: 18px; fill: rgb(36, 36, 36); fill-opacity: 1; white-space: pre;">0.0014</text></g><g class="ytick"><text text-anchor="end" x="80.4" y="6.3" transform="translate(0,231.35)" style="font-family: 'Times New Roman'; font-size: 18px; fill: rgb(36, 36, 36); fill-opacity: 1; white-space: pre;">0.0016</text></g><g class="ytick"><text text-anchor="end" x="80.4" y="6.3" transform="translate(0,204.79)" style="font-family: 'Times New Roman'; font-size: 18px; fill: rgb(36, 36, 36); fill-opacity: 1; white-space: pre;">0.0018</text></g><g class="ytick"><text text-anchor="end" x="80.4" y="6.3" transform="translate(0,181.03)" style="font-family: 'Times New Roman'; font-size: 18px; fill: rgb(36, 36, 36); fill-opacity: 1; white-space: pre;">0.002</text></g><g class="ytick"><text text-anchor="end" x="80.4" y="6.3" transform="translate(0,159.53)" style="font-family: 'Times New Roman'; font-size: 18px; fill: rgb(36, 36, 36); fill-opacity: 1; white-space: pre;">0.0022</text></g><g class="ytick"><text text-anchor="end" x="80.4" y="6.3" transform="translate(0,139.91)" style="font-family: 'Times New Roman'; font-size: 18px; fill: rgb(36, 36, 36); fill-opacity: 1; white-space: pre;">0.0024</text></g><g class="ytick"><text text-anchor="end" x="80.4" y="6.3" transform="translate(0,121.86)" style="font-family: 'Times New Roman'; font-size: 18px; fill: rgb(36, 36, 36); fill-opacity: 1; white-space: pre;">0.0026</text></g><g class="ytick"><text text-anchor="end" x="80.4" y="6.3" transform="translate(0,105.15)" style="font-family: 'Times New Roman'; font-size: 18px; fill: rgb(36, 36, 36); fill-opacity: 1; white-space: pre;">0.0028</text></g><g class="ytick"><text text-anchor="end" x="80.4" y="6.3" transform="translate(0,89.59)" style="font-family: 'Times New Roman'; font-size: 18px; fill: rgb(36, 36, 36); fill-opacity: 1; white-space: pre;">0.003</text></g><g class="ytick"><text text-anchor="end" x="80.4" y="6.3" transform="translate(0,75.03)" style="font-family: 'Times New Roman'; font-size: 18px; fill: rgb(36, 36, 36); fill-opacity: 1; white-space: pre;">0.0032</text></g><g class="ytick"><text text-anchor="end" x="80.4" y="6.3" transform="translate(0,61.36)" style="font-family: 'Times New Roman'; font-size: 18px; fill: rgb(36, 36, 36); fill-opacity: 1; white-space: pre;">0.0034</text></g></g><g class="overaxes-above"/></g></g><g class="polarlayer"/><g class="ternarylayer"/><g class="geolayer"/><g class="funnelarealayer"/><g class="pielayer"/><g class="treemaplayer"/><g class="sunburstlayer"/><g class="glimages"/><defs id="topdefs-0ebf73"><g class="clips"/><clipPath id="legend0ebf73"><rect width="107" height="274" x="0" y="0"/></clipPath></defs><g class="layer-above"><g class="imagelayer"/><g class="shapelayer"/></g><g class="infolayer"><g class="legend" pointer-events="all" transform="translate(592.96, 50)"><rect class="bg" shape-rendering="crispEdges" style="stroke: rgb(68, 68, 68); stroke-opacity: 1; fill: rgb(255, 255, 255); fill-opacity: 1; stroke-width: 0px;" width="107" height="274" x="0" y="0"/><g class="scrollbox" transform="translate(0, 0)" clip-path="url('#legend0ebf73')"><g class="groups"><g class="traces" transform="translate(0, 18.200000000000003)" style="opacity: 1;"><text class="legendtext user-select-none" text-anchor="start" x="40" y="7.0200000000000005" style="font-family: 'Times New Roman'; font-size: 18px; fill: rgb(36, 36, 36); fill-opacity: 1; white-space: pre;">Trial411</text><g class="layers" style="opacity: 1;"><g class="legendfill"/><g class="legendlines"><path class="js-line" d="M5,0h30" style="fill: none; stroke: rgb(175, 0, 56); stroke-opacity: 1; stroke-width: 2px;"/></g><g class="legendsymbols"><g class="legendpoints"><path class="scatterpts" transform="translate(20,0)" d="M5,0A5,5 0 1,1 0,-5A5,5 0 0,1 5,0Z" style="opacity: 1; stroke-width: 0px; fill: rgb(175, 0, 56); fill-opacity: 1;"/></g></g></g><rect class="legendtoggle" pointer-events="all" x="0" y="-13.200000000000001" width="101.359375" height="26.400000000000002" style="cursor: pointer; fill: rgb(0, 0, 0); fill-opacity: 0;"/></g><g class="traces" transform="translate(0, 44.6)" style="opacity: 1;"><text class="legendtext user-select-none" text-anchor="start" x="40" y="7.0200000000000005" style="font-family: 'Times New Roman'; font-size: 18px; fill: rgb(36, 36, 36); fill-opacity: 1; white-space: pre;">Trial436</text><g class="layers" style="opacity: 1;"><g class="legendfill"/><g class="legendlines"><path class="js-line" d="M5,0h30" style="fill: none; stroke: rgb(13, 42, 99); stroke-opacity: 1; stroke-width: 2px;"/></g><g class="legendsymbols"><g class="legendpoints"><path class="scatterpts" transform="translate(20,0)" d="M5,5H-5V-5H5Z" style="opacity: 1; stroke-width: 0px; fill: rgb(13, 42, 99); fill-opacity: 1;"/></g></g></g><rect class="legendtoggle" pointer-events="all" x="0" y="-13.200000000000001" width="101.359375" height="26.400000000000002" style="cursor: pointer; fill: rgb(0, 0, 0); fill-opacity: 0;"/></g><g class="traces" transform="translate(0, 71)" style="opacity: 1;"><text class="legendtext user-select-none" text-anchor="start" x="40" y="7.0200000000000005" style="font-family: 'Times New Roman'; font-size: 18px; fill: rgb(36, 36, 36); fill-opacity: 1; white-space: pre;">Trial440</text><g class="layers" style="opacity: 1;"><g class="legendfill"/><g class="legendlines"><path class="js-line" d="M5,0h30" style="fill: none; stroke: rgb(108, 69, 22); stroke-opacity: 1; stroke-width: 2px;"/></g><g class="legendsymbols"><g class="legendpoints"><path class="scatterpts" transform="translate(20,0)" d="M6.5,0L0,6.5L-6.5,0L0,-6.5Z" style="opacity: 1; stroke-width: 0px; fill: rgb(108, 69, 22); fill-opacity: 1;"/></g></g></g><rect class="legendtoggle" pointer-events="all" x="0" y="-13.200000000000001" width="101.359375" height="26.400000000000002" style="cursor: pointer; fill: rgb(0, 0, 0); fill-opacity: 0;"/></g><g class="traces" transform="translate(0, 97.4)" style="opacity: 1;"><text class="legendtext user-select-none" text-anchor="start" x="40" y="7.0200000000000005" style="font-family: 'Times New Roman'; font-size: 18px; fill: rgb(36, 36, 36); fill-opacity: 1; white-space: pre;">Trial466</text><g class="layers" style="opacity: 1;"><g class="legendfill"/><g class="legendlines"><path class="js-line" d="M5,0h30" style="fill: none; stroke: rgb(218, 96, 202); stroke-opacity: 1; stroke-width: 2px;"/></g><g class="legendsymbols"><g class="legendpoints"><path class="scatterpts" transform="translate(20,0)" d="M6,2H2V6H-2V2H-6V-2H-2V-6H2V-2H6Z" style="opacity: 1; stroke-width: 0px; fill: rgb(218, 96, 202); fill-opacity: 1;"/></g></g></g><rect class="legendtoggle" pointer-events="all" x="0" y="-13.200000000000001" width="101.359375" height="26.400000000000002" style="cursor: pointer; fill: rgb(0, 0, 0); fill-opacity: 0;"/></g><g class="traces" transform="translate(0, 123.80000000000001)" style="opacity: 1;"><text class="legendtext user-select-none" text-anchor="start" x="40" y="7.0200000000000005" style="font-family: 'Times New Roman'; font-size: 18px; fill: rgb(36, 36, 36); fill-opacity: 1; white-space: pre;">Trial513</text><g class="layers" style="opacity: 1;"><g class="legendfill"/><g class="legendlines"><path class="js-line" d="M5,0h30" style="fill: none; stroke: rgb(22, 22, 167); stroke-opacity: 1; stroke-width: 2px;"/></g><g class="legendsymbols"><g class="legendpoints"><path class="scatterpts" transform="translate(20,0)" d="M0,2.83l2.83,2.83l2.83,-2.83l-2.83,-2.83l2.83,-2.83l-2.83,-2.83l-2.83,2.83l-2.83,-2.83l-2.83,2.83l2.83,2.83l-2.83,2.83l2.83,2.83Z" style="opacity: 1; stroke-width: 0px; fill: rgb(22, 22, 167); fill-opacity: 1;"/></g></g></g><rect class="legendtoggle" pointer-events="all" x="0" y="-13.200000000000001" width="101.359375" height="26.400000000000002" style="cursor: pointer; fill: rgb(0, 0, 0); fill-opacity: 0;"/></g><g class="traces" transform="translate(0, 150.2)" style="opacity: 1;"><text class="legendtext user-select-none" text-anchor="start" x="40" y="7.0200000000000005" style="font-family: 'Times New Roman'; font-size: 18px; fill: rgb(36, 36, 36); fill-opacity: 1; white-space: pre;">Trial524</text><g class="layers" style="opacity: 1;"><g class="legendfill"/><g class="legendlines"><path class="js-line" d="M5,0h30" style="fill: none; stroke: rgb(98, 0, 66); stroke-opacity: 1; stroke-width: 2px;"/></g><g class="legendsymbols"><g class="legendpoints"><path class="scatterpts" transform="translate(20,0)" d="M-5.77,2.5H5.77L0,-5Z" style="opacity: 1; stroke-width: 0px; fill: rgb(98, 0, 66); fill-opacity: 1;"/></g></g></g><rect class="legendtoggle" pointer-events="all" x="0" y="-13.200000000000001" width="101.359375" height="26.400000000000002" style="cursor: pointer; fill: rgb(0, 0, 0); fill-opacity: 0;"/></g><g class="traces" transform="translate(0, 176.6)" style="opacity: 1;"><text class="legendtext user-select-none" text-anchor="start" x="40" y="7.0200000000000005" style="font-family: 'Times New Roman'; font-size: 18px; fill: rgb(36, 36, 36); fill-opacity: 1; white-space: pre;">Trial525</text><g class="layers" style="opacity: 1;"><g class="legendfill"/><g class="legendlines"><path class="js-line" d="M5,0h30" style="fill: none; stroke: rgb(167, 119, 241); stroke-opacity: 1; stroke-width: 2px;"/></g><g class="legendsymbols"><g class="legendpoints"><path class="scatterpts" transform="translate(20,0)" d="M-5.77,-2.5H5.77L0,5Z" style="opacity: 1; stroke-width: 0px; fill: rgb(167, 119, 241); fill-opacity: 1;"/></g></g></g><rect class="legendtoggle" pointer-events="all" x="0" y="-13.200000000000001" width="101.359375" height="26.400000000000002" style="cursor: pointer; fill: rgb(0, 0, 0); fill-opacity: 0;"/></g><g class="traces" transform="translate(0, 203)" style="opacity: 1;"><text class="legendtext user-select-none" text-anchor="start" x="40" y="7.0200000000000005" style="font-family: 'Times New Roman'; font-size: 18px; fill: rgb(36, 36, 36); fill-opacity: 1; white-space: pre;">Trial539</text><g class="layers" style="opacity: 1;"><g class="legendfill"/><g class="legendlines"><path class="js-line" d="M5,0h30" style="fill: none; stroke: rgb(134, 42, 22); stroke-opacity: 1; stroke-width: 2px;"/></g><g class="legendsymbols"><g class="legendpoints"><path class="scatterpts" transform="translate(20,0)" d="M2.5,-5.77V5.77L-5,0Z" style="opacity: 1; stroke-width: 0px; fill: rgb(134, 42, 22); fill-opacity: 1;"/></g></g></g><rect class="legendtoggle" pointer-events="all" x="0" y="-13.200000000000001" width="101.359375" height="26.400000000000002" style="cursor: pointer; fill: rgb(0, 0, 0); fill-opacity: 0;"/></g><g class="traces" transform="translate(0, 229.4)" style="opacity: 1;"><text class="legendtext user-select-none" text-anchor="start" x="40" y="7.0200000000000005" style="font-family: 'Times New Roman'; font-size: 18px; fill: rgb(36, 36, 36); fill-opacity: 1; white-space: pre;">Trial544</text><g class="layers" style="opacity: 1;"><g class="legendfill"/><g class="legendlines"><path class="js-line" d="M5,0h30" style="fill: none; stroke: rgb(119, 138, 174); stroke-opacity: 1; stroke-width: 2px;"/></g><g class="legendsymbols"><g class="legendpoints"><path class="scatterpts" transform="translate(20,0)" d="M-2.5,-5.77V5.77L5,0Z" style="opacity: 1; stroke-width: 0px; fill: rgb(119, 138, 174); fill-opacity: 1;"/></g></g></g><rect class="legendtoggle" pointer-events="all" x="0" y="-13.200000000000001" width="101.359375" height="26.400000000000002" style="cursor: pointer; fill: rgb(0, 0, 0); fill-opacity: 0;"/></g><g class="traces" transform="translate(0, 255.8)" style="opacity: 1;"><text class="legendtext user-select-none" text-anchor="start" x="40" y="7.0200000000000005" style="font-family: 'Times New Roman'; font-size: 18px; fill: rgb(36, 36, 36); fill-opacity: 1; white-space: pre;">Trial545</text><g class="layers" style="opacity: 1;"><g class="legendfill"/><g class="legendlines"><path class="js-line" d="M5,0h30" style="fill: none; stroke: rgb(108, 124, 50); stroke-opacity: 1; stroke-width: 2px;"/></g><g class="legendsymbols"><g class="legendpoints"><path class="scatterpts" transform="translate(20,0)" d="M-6,-3H3V6Z" style="opacity: 1; stroke-width: 0px; fill: rgb(108, 124, 50); fill-opacity: 1;"/></g></g></g><rect class="legendtoggle" pointer-events="all" x="0" y="-13.200000000000001" width="101.359375" height="26.400000000000002" style="cursor: pointer; fill: rgb(0, 0, 0); fill-opacity: 0;"/></g></g></g><rect class="scrollbar" rx="20" ry="3" width="0" height="0" style="fill: rgb(128, 139, 164); fill-opacity: 1;" x="0" y="0"/></g><g class="g-gtitle"><text class="gtitle" x="350" y="10" text-anchor="middle" dy="0.7em" style="font-family: 'Times New Roman'; font-size: 30px; fill: rgb(36, 36, 36); opacity: 1; font-weight: normal; white-space: pre;">Loss Per Training Step</text></g><g class="g-xtitle" transform="translate(0,-5.009374999999977)"><text class="xtitle" x="334" y="500.009375" text-anchor="middle" style="font-family: 'Times New Roman'; font-size: 22px; fill: rgb(36, 36, 36); opacity: 1; font-weight: normal; white-space: pre;">Step</text></g><g class="g-ytitle" transform="translate(19.509765625,0)"><text class="ytitle" transform="rotate(-90,0.4906249999999943,246.5)" x="0.4906249999999943" y="246.5" text-anchor="middle" style="font-family: 'Times New Roman'; font-size: 22px; fill: rgb(36, 36, 36); opacity: 1; font-weight: normal; white-space: pre;">Intermediate Value</text></g></g></svg>