<svg class="main-svg" xmlns="http://www.w3.org/2000/svg" xmlns:xlink="http://www.w3.org/1999/xlink" width="800" height="500" style="" viewBox="0 0 800 500"><rect x="0" y="0" width="800" height="500" style="fill: rgb(255, 255, 255); fill-opacity: 1;"/><defs id="defs-78a69f"><g class="clips"><clipPath id="clip78a69fxyplot" class="plotclip"><rect width="596" height="393"/></clipPath><clipPath class="axesclip" id="clip78a69fx"><rect x="85" y="0" width="596" height="500"/></clipPath><clipPath class="axesclip" id="clip78a69fy"><rect x="0" y="50" width="800" height="393"/></clipPath><clipPath class="axesclip" id="clip78a69fxy"><rect x="85" y="50" width="596" height="393"/></clipPath></g><g class="gradients"/></defs><g class="bglayer"><rect class="bg" x="85" y="50" width="596" height="393" style="fill: rgb(234, 234, 242); fill-opacity: 1; stroke-width: 0;"/></g><g class="layer-below"><g class="imagelayer"/><g class="shapelayer"/></g><g class="cartesianlayer"><g class="subplot xy"><g class="layer-subplot"><g class="shapelayer"/><g class="imagelayer"/></g><g class="gridlayer"><g class="x"/><g class="y"/></g><g class="zerolinelayer"/><path class="xlines-below"/><path class="ylines-below"/><g class="overlines-below"/><g class="xaxislayer-below"/><g class="yaxislayer-below"/><g class="overaxes-below"/><g class="plot" transform="translate(85, 50)" clip-path="url('#clip78a69fxyplot')"><g class="scatterlayer mlayer"><g class="trace scatter tracefc8d50" style="stroke-miterlimit: 2; opacity: 1;"><g class="fills"/><g class="errorbars"/><g class="lines"><path class="js-line" d="M36.05,126.43L49.48,211.76L62.92,244.48L76.35,258.71L89.78,270.46L116.65,276.86L130.08,275.84L143.52,297.23L156.95,298.66L170.38,310.2L183.82,308.84L197.25,312.38L210.68,320.9L224.12,313.98L237.55,326.81L250.98,328.33L264.42,327.44L277.85,318.24L291.28,333.7" style="vector-effect: non-scaling-stroke; fill: none; stroke: rgb(39, 26, 44); stroke-opacity: 1; stroke-width: 2px; opacity: 1;"/></g><g class="points"><path class="point" transform="translate(36.05,126.43)" d="M5,0A5,5 0 1,1 0,-5A5,5 0 0,1 5,0Z" style="opacity: 1; stroke-width: 0px; fill: rgb(39, 26, 44); fill-opacity: 1;"/><path class="point" transform="translate(62.92,244.48)" d="M5,0A5,5 0 1,1 0,-5A5,5 0 0,1 5,0Z" style="opacity: 1; stroke-width: 0px; fill: rgb(39, 26, 44); fill-opacity: 1;"/><path class="point" transform="translate(89.78,270.46)" d="M5,0A5,5 0 1,1 0,-5A5,5 0 0,1 5,0Z" style="opacity: 1; stroke-width: 0px; fill: rgb(39, 26, 44); fill-opacity: 1;"/><path class="point" transform="translate(116.65,276.86)" d="M5,0A5,5 0 1,1 0,-5A5,5 0 0,1 5,0Z" style="opacity: 1; stroke-width: 0px; fill: rgb(39, 26, 44); fill-opacity: 1;"/><path class="point" transform="translate(143.52,297.23)" d="M5,0A5,5 0 1,1 0,-5A5,5 0 0,1 5,0Z" style="opacity: 1; stroke-width: 0px; fill: rgb(39, 26, 44); fill-opacity: 1;"/><path class="point" transform="translate(170.38,310.2)" d="M5,0A5,5 0 1,1 0,-5A5,5 0 0,1 5,0Z" style="opacity: 1; stroke-width: 0px; fill: rgb(39, 26, 44); fill-opacity: 1;"/><path class="point" transform="translate(197.25,312.38)" d="M5,0A5,5 0 1,1 0,-5A5,5 0 0,1 5,0Z" style="opacity: 1; stroke-width: 0px; fill: rgb(39, 26, 44); fill-opacity: 1;"/><path class="point" transform="translate(224.12,313.98)" d="M5,0A5,5 0 1,1 0,-5A5,5 0 0,1 5,0Z" style="opacity: 1; stroke-width: 0px; fill: rgb(39, 26, 44); fill-opacity: 1;"/><path class="point" transform="translate(250.98,328.33)" d="M5,0A5,5 0 1,1 0,-5A5,5 0 0,1 5,0Z" style="opacity: 1; stroke-width: 0px; fill: rgb(39, 26, 44); fill-opacity: 1;"/><path class="point" transform="translate(277.85,318.24)" d="M5,0A5,5 0 1,1 0,-5A5,5 0 0,1 5,0Z" style="opacity: 1; stroke-width: 0px; fill: rgb(39, 26, 44); fill-opacity: 1;"/></g><g class="text"/></g><g class="trace scatter trace31741a" style="stroke-miterlimit: 2; opacity: 1;"><g class="fills"/><g class="errorbars"/><g class="lines"><path class="js-line" d="M36.05,167.3L49.48,215.82L62.92,242.28L76.35,257.58L89.78,267.75L103.22,277.98L116.65,278.72L130.08,285.64L143.52,291.26L156.95,299.56L170.38,298.88L183.82,305.59L197.25,304.62L210.68,308.47L224.12,309.16L237.55,317.85L250.98,308.56L264.42,324.6L277.85,312.82L291.28,327.64" style="vector-effect: non-scaling-stroke; fill: none; stroke: rgb(54, 43, 77); stroke-opacity: 1; stroke-width: 2px; opacity: 1;"/></g><g class="points"><path class="point" transform="translate(49.48,215.82)" d="M5,5H-5V-5H5Z" style="opacity: 1; stroke-width: 0px; fill: rgb(54, 43, 77); fill-opacity: 1;"/><path class="point" transform="translate(76.35,257.58)" d="M5,5H-5V-5H5Z" style="opacity: 1; stroke-width: 0px; fill: rgb(54, 43, 77); fill-opacity: 1;"/><path class="point" transform="translate(103.22,277.98)" d="M5,5H-5V-5H5Z" style="opacity: 1; stroke-width: 0px; fill: rgb(54, 43, 77); fill-opacity: 1;"/><path class="point" transform="translate(130.08,285.64)" d="M5,5H-5V-5H5Z" style="opacity: 1; stroke-width: 0px; fill: rgb(54, 43, 77); fill-opacity: 1;"/><path class="point" transform="translate(156.95,299.56)" d="M5,5H-5V-5H5Z" style="opacity: 1; stroke-width: 0px; fill: rgb(54, 43, 77); fill-opacity: 1;"/><path class="point" transform="translate(183.82,305.59)" d="M5,5H-5V-5H5Z" style="opacity: 1; stroke-width: 0px; fill: rgb(54, 43, 77); fill-opacity: 1;"/><path class="point" transform="translate(210.68,308.47)" d="M5,5H-5V-5H5Z" style="opacity: 1; stroke-width: 0px; fill: rgb(54, 43, 77); fill-opacity: 1;"/><path class="point" transform="translate(237.55,317.85)" d="M5,5H-5V-5H5Z" style="opacity: 1; stroke-width: 0px; fill: rgb(54, 43, 77); fill-opacity: 1;"/><path class="point" transform="translate(264.42,324.6)" d="M5,5H-5V-5H5Z" style="opacity: 1; stroke-width: 0px; fill: rgb(54, 43, 77); fill-opacity: 1;"/><path class="point" transform="translate(291.28,327.64)" d="M5,5H-5V-5H5Z" style="opacity: 1; stroke-width: 0px; fill: rgb(54, 43, 77); fill-opacity: 1;"/></g><g class="text"/></g><g class="trace scatter trace8581b2" style="stroke-miterlimit: 2; opacity: 1;"><g class="fills"/><g class="errorbars"/><g class="lines"><path class="js-line" d="M36.05,105.71L49.48,188.43L62.92,223.88L76.35,247.99L89.78,262.01L103.22,269.22L116.65,271.09L130.08,258.7L143.52,286.57L156.95,292.75L170.38,296.51L197.25,304.9L210.68,305.38L264.42,318.56L277.85,313.49L291.28,325.85" style="vector-effect: non-scaling-stroke; fill: none; stroke: rgb(64, 60, 115); stroke-opacity: 1; stroke-width: 2px; opacity: 1;"/></g><g class="points"><path class="point" transform="translate(49.48,188.43)" d="M6.5,0L0,6.5L-6.5,0L0,-6.5Z" style="opacity: 1; stroke-width: 0px; fill: rgb(64, 60, 115); fill-opacity: 1;"/><path class="point" transform="translate(76.35,247.99)" d="M6.5,0L0,6.5L-6.5,0L0,-6.5Z" style="opacity: 1; stroke-width: 0px; fill: rgb(64, 60, 115); fill-opacity: 1;"/><path class="point" transform="translate(103.22,269.22)" d="M6.5,0L0,6.5L-6.5,0L0,-6.5Z" style="opacity: 1; stroke-width: 0px; fill: rgb(64, 60, 115); fill-opacity: 1;"/><path class="point" transform="translate(130.08,258.7)" d="M6.5,0L0,6.5L-6.5,0L0,-6.5Z" style="opacity: 1; stroke-width: 0px; fill: rgb(64, 60, 115); fill-opacity: 1;"/><path class="point" transform="translate(156.95,292.75)" d="M6.5,0L0,6.5L-6.5,0L0,-6.5Z" style="opacity: 1; stroke-width: 0px; fill: rgb(64, 60, 115); fill-opacity: 1;"/><path class="point" transform="translate(183.82,300.96)" d="M6.5,0L0,6.5L-6.5,0L0,-6.5Z" style="opacity: 1; stroke-width: 0px; fill: rgb(64, 60, 115); fill-opacity: 1;"/><path class="point" transform="translate(210.68,305.38)" d="M6.5,0L0,6.5L-6.5,0L0,-6.5Z" style="opacity: 1; stroke-width: 0px; fill: rgb(64, 60, 115); fill-opacity: 1;"/><path class="point" transform="translate(237.55,312.34)" d="M6.5,0L0,6.5L-6.5,0L0,-6.5Z" style="opacity: 1; stroke-width: 0px; fill: rgb(64, 60, 115); fill-opacity: 1;"/><path class="point" transform="translate(264.42,318.56)" d="M6.5,0L0,6.5L-6.5,0L0,-6.5Z" style="opacity: 1; stroke-width: 0px; fill: rgb(64, 60, 115); fill-opacity: 1;"/><path class="point" transform="translate(291.28,325.85)" d="M6.5,0L0,6.5L-6.5,0L0,-6.5Z" style="opacity: 1; stroke-width: 0px; fill: rgb(64, 60, 115); fill-opacity: 1;"/></g><g class="text"/></g><g class="trace scatter trace121b9f" style="stroke-miterlimit: 2; opacity: 1;"><g class="fills"/><g class="errorbars"/><g class="lines"><path class="js-line" d="M36.05,121.56L49.48,196.25L62.92,231.83L76.35,249L89.78,264.01L103.22,269.56L116.65,286.53L130.08,284.05L143.52,296.03L156.95,302.05L170.38,311.63L183.82,313.04L197.25,315.86L210.68,316.6L224.12,322.37L237.55,320.84L250.98,324.76L264.42,339.19L277.85,329.49L291.28,338.19" style="vector-effect: non-scaling-stroke; fill: none; stroke: rgb(62, 82, 143); stroke-opacity: 1; stroke-width: 2px; opacity: 1;"/></g><g class="points"><path class="point" transform="translate(36.05,121.56)" d="M6,2H2V6H-2V2H-6V-2H-2V-6H2V-2H6Z" style="opacity: 1; stroke-width: 0px; fill: rgb(62, 82, 143); fill-opacity: 1;"/><path class="point" transform="translate(62.92,231.83)" d="M6,2H2V6H-2V2H-6V-2H-2V-6H2V-2H6Z" style="opacity: 1; stroke-width: 0px; fill: rgb(62, 82, 143); fill-opacity: 1;"/><path class="point" transform="translate(89.78,264.01)" d="M6,2H2V6H-2V2H-6V-2H-2V-6H2V-2H6Z" style="opacity: 1; stroke-width: 0px; fill: rgb(62, 82, 143); fill-opacity: 1;"/><path class="point" transform="translate(116.65,286.53)" d="M6,2H2V6H-2V2H-6V-2H-2V-6H2V-2H6Z" style="opacity: 1; stroke-width: 0px; fill: rgb(62, 82, 143); fill-opacity: 1;"/><path class="point" transform="translate(143.52,296.03)" d="M6,2H2V6H-2V2H-6V-2H-2V-6H2V-2H6Z" style="opacity: 1; stroke-width: 0px; fill: rgb(62, 82, 143); fill-opacity: 1;"/><path class="point" transform="translate(170.38,311.63)" d="M6,2H2V6H-2V2H-6V-2H-2V-6H2V-2H6Z" style="opacity: 1; stroke-width: 0px; fill: rgb(62, 82, 143); fill-opacity: 1;"/><path class="point" transform="translate(197.25,315.86)" d="M6,2H2V6H-2V2H-6V-2H-2V-6H2V-2H6Z" style="opacity: 1; stroke-width: 0px; fill: rgb(62, 82, 143); fill-opacity: 1;"/><path class="point" transform="translate(224.12,322.37)" d="M6,2H2V6H-2V2H-6V-2H-2V-6H2V-2H6Z" style="opacity: 1; stroke-width: 0px; fill: rgb(62, 82, 143); fill-opacity: 1;"/><path class="point" transform="translate(250.98,324.76)" d="M6,2H2V6H-2V2H-6V-2H-2V-6H2V-2H6Z" style="opacity: 1; stroke-width: 0px; fill: rgb(62, 82, 143); fill-opacity: 1;"/><path class="point" transform="translate(277.85,329.49)" d="M6,2H2V6H-2V2H-6V-2H-2V-6H2V-2H6Z" style="opacity: 1; stroke-width: 0px; fill: rgb(62, 82, 143); fill-opacity: 1;"/></g><g class="text"/></g><g class="trace scatter trace9e53f0" style="stroke-miterlimit: 2; opacity: 1;"><g class="fills"/><g class="errorbars"/><g class="lines"><path class="js-line" d="M36.05,62.32L49.48,180.63L62.92,214.05L76.35,244.51L89.78,261.8L103.22,272.65L116.65,276.37L130.08,288.85L143.52,298.52L156.95,305.4L170.38,309.51L183.82,309.72L197.25,317.61L210.68,316.81L224.12,322.79L250.98,332.41L264.42,340.39L277.85,338.59L291.28,340.59L304.72,343.91L318.15,345.06L331.58,340.91L345.02,344.46L358.45,352.59L371.88,347.13L385.32,344.94L398.75,356.86L412.18,348.85L425.62,353.19L439.05,357.14L452.48,355.62L465.92,355.81L479.35,340.19L492.78,360.03L506.22,357.51L519.65,363.3L533.08,360.84L546.52,367.1L559.95,364.22" style="vector-effect: non-scaling-stroke; fill: none; stroke: rgb(62, 108, 150); stroke-opacity: 1; stroke-width: 2px; opacity: 1;"/></g><g class="points"><path class="point" transform="translate(62.92,214.05)" d="M-2.5,-5.77V5.77L5,0Z" style="opacity: 1; stroke-width: 0px; fill: rgb(62, 108, 150); fill-opacity: 1;"/><path class="point" transform="translate(116.65,276.37)" d="M-2.5,-5.77V5.77L5,0Z" style="opacity: 1; stroke-width: 0px; fill: rgb(62, 108, 150); fill-opacity: 1;"/><path class="point" transform="translate(170.38,309.51)" d="M-2.5,-5.77V5.77L5,0Z" style="opacity: 1; stroke-width: 0px; fill: rgb(62, 108, 150); fill-opacity: 1;"/><path class="point" transform="translate(224.12,322.79)" d="M-2.5,-5.77V5.77L5,0Z" style="opacity: 1; stroke-width: 0px; fill: rgb(62, 108, 150); fill-opacity: 1;"/><path class="point" transform="translate(277.85,338.59)" d="M-2.5,-5.77V5.77L5,0Z" style="opacity: 1; stroke-width: 0px; fill: rgb(62, 108, 150); fill-opacity: 1;"/><path class="point" transform="translate(331.58,340.91)" d="M-2.5,-5.77V5.77L5,0Z" style="opacity: 1; stroke-width: 0px; fill: rgb(62, 108, 150); fill-opacity: 1;"/><path class="point" transform="translate(385.32,344.94)" d="M-2.5,-5.77V5.77L5,0Z" style="opacity: 1; stroke-width: 0px; fill: rgb(62, 108, 150); fill-opacity: 1;"/><path class="point" transform="translate(439.05,357.14)" d="M-2.5,-5.77V5.77L5,0Z" style="opacity: 1; stroke-width: 0px; fill: rgb(62, 108, 150); fill-opacity: 1;"/><path class="point" transform="translate(492.78,360.03)" d="M-2.5,-5.77V5.77L5,0Z" style="opacity: 1; stroke-width: 0px; fill: rgb(62, 108, 150); fill-opacity: 1;"/><path class="point" transform="translate(546.52,367.1)" d="M-2.5,-5.77V5.77L5,0Z" style="opacity: 1; stroke-width: 0px; fill: rgb(62, 108, 150); fill-opacity: 1;"/></g><g class="text"/></g><g class="trace scatter trace31bc4b" style="stroke-miterlimit: 2; opacity: 1;"><g class="fills"/><g class="errorbars"/><g class="lines"><path class="js-line" d="M36.05,134.72L49.48,170.34L62.92,193.49L76.35,202.51L89.78,223.85L103.22,222.04L116.65,227.99L130.08,274.38L143.52,278.64L156.95,275.23L170.38,289.7L183.82,283.76L197.25,298.27L210.68,301.08L224.12,291L237.55,300.6L250.98,301.25L264.42,298.15L277.85,307.83L291.28,307L304.72,302.32L318.15,310.13L331.58,300.75L345.02,316.68L358.45,318.06L371.88,307.49L385.32,312.13L398.75,326.28L412.18,324.29L425.62,321.87L439.05,330.26L452.48,317.39L465.92,322.75L479.35,322.98L492.78,321.09L506.22,328.2L519.65,328.65L533.08,326.33L546.52,325.44L559.95,328.69" style="vector-effect: non-scaling-stroke; fill: none; stroke: rgb(68, 130, 155); stroke-opacity: 1; stroke-width: 2px; opacity: 1;"/></g><g class="points"><path class="point" transform="translate(49.48,170.34)" d="M3,-6V3H-6Z" style="opacity: 1; stroke-width: 0px; fill: rgb(68, 130, 155); fill-opacity: 1;"/><path class="point" transform="translate(103.22,222.04)" d="M3,-6V3H-6Z" style="opacity: 1; stroke-width: 0px; fill: rgb(68, 130, 155); fill-opacity: 1;"/><path class="point" transform="translate(156.95,275.23)" d="M3,-6V3H-6Z" style="opacity: 1; stroke-width: 0px; fill: rgb(68, 130, 155); fill-opacity: 1;"/><path class="point" transform="translate(210.68,301.08)" d="M3,-6V3H-6Z" style="opacity: 1; stroke-width: 0px; fill: rgb(68, 130, 155); fill-opacity: 1;"/><path class="point" transform="translate(264.42,298.15)" d="M3,-6V3H-6Z" style="opacity: 1; stroke-width: 0px; fill: rgb(68, 130, 155); fill-opacity: 1;"/><path class="point" transform="translate(318.15,310.13)" d="M3,-6V3H-6Z" style="opacity: 1; stroke-width: 0px; fill: rgb(68, 130, 155); fill-opacity: 1;"/><path class="point" transform="translate(371.88,307.49)" d="M3,-6V3H-6Z" style="opacity: 1; stroke-width: 0px; fill: rgb(68, 130, 155); fill-opacity: 1;"/><path class="point" transform="translate(425.62,321.87)" d="M3,-6V3H-6Z" style="opacity: 1; stroke-width: 0px; fill: rgb(68, 130, 155); fill-opacity: 1;"/><path class="point" transform="translate(479.35,322.98)" d="M3,-6V3H-6Z" style="opacity: 1; stroke-width: 0px; fill: rgb(68, 130, 155); fill-opacity: 1;"/><path class="point" transform="translate(533.08,326.33)" d="M3,-6V3H-6Z" style="opacity: 1; stroke-width: 0px; fill: rgb(68, 130, 155); fill-opacity: 1;"/></g><g class="text"/></g><g class="trace scatter tracee1e67f" style="stroke-miterlimit: 2; opacity: 1;"><g class="fills"/><g class="errorbars"/><g class="lines"><path class="js-line" d="M36.05,139.67L49.48,198.29L62.92,234.41L89.78,259.37L103.22,275.02L116.65,274.89L130.08,278.75L143.52,289.89L156.95,290.82L170.38,296.78L183.82,295.36L197.25,303.43L210.68,297.98L224.12,303.59L237.55,293.82L250.98,304.91L264.42,309.38L277.85,318.89L291.28,307.49L304.72,318.25L318.15,305.96L331.58,318.35L345.02,315.88L371.88,318.71L385.32,320.01L398.75,323.37L412.18,330.89" style="vector-effect: non-scaling-stroke; fill: none; stroke: rgb(76, 153, 160); stroke-opacity: 1; stroke-width: 2px; opacity: 1;"/></g><g class="points"><path class="point" transform="translate(62.92,234.41)" d="M-3,6V-3H6Z" style="opacity: 1; stroke-width: 0px; fill: rgb(76, 153, 160); fill-opacity: 1;"/><path class="point" transform="translate(103.22,275.02)" d="M-3,6V-3H6Z" style="opacity: 1; stroke-width: 0px; fill: rgb(76, 153, 160); fill-opacity: 1;"/><path class="point" transform="translate(143.52,289.89)" d="M-3,6V-3H6Z" style="opacity: 1; stroke-width: 0px; fill: rgb(76, 153, 160); fill-opacity: 1;"/><path class="point" transform="translate(183.82,295.36)" d="M-3,6V-3H6Z" style="opacity: 1; stroke-width: 0px; fill: rgb(76, 153, 160); fill-opacity: 1;"/><path class="point" transform="translate(224.12,303.59)" d="M-3,6V-3H6Z" style="opacity: 1; stroke-width: 0px; fill: rgb(76, 153, 160); fill-opacity: 1;"/><path class="point" transform="translate(264.42,309.38)" d="M-3,6V-3H6Z" style="opacity: 1; stroke-width: 0px; fill: rgb(76, 153, 160); fill-opacity: 1;"/><path class="point" transform="translate(304.72,318.25)" d="M-3,6V-3H6Z" style="opacity: 1; stroke-width: 0px; fill: rgb(76, 153, 160); fill-opacity: 1;"/><path class="point" transform="translate(345.02,315.88)" d="M-3,6V-3H6Z" style="opacity: 1; stroke-width: 0px; fill: rgb(76, 153, 160); fill-opacity: 1;"/><path class="point" transform="translate(385.32,320.01)" d="M-3,6V-3H6Z" style="opacity: 1; stroke-width: 0px; fill: rgb(76, 153, 160); fill-opacity: 1;"/></g><g class="text"/></g><g class="trace scatter trace493456" style="stroke-miterlimit: 2; opacity: 1;"><g class="fills"/><g class="errorbars"/><g class="lines"><path class="js-line" d="M36.05,126.29L49.48,201.14L62.92,226.47L76.35,233.63L89.78,258.41L103.22,270.85L116.65,277.28L130.08,283.56L143.52,288.94L156.95,284.85L170.38,297.57L183.82,298.68L197.25,304.45L210.68,305.49L224.12,312.76L237.55,317.02L250.98,305.57L264.42,314.85L277.85,317.01L291.28,326.53L304.72,321.47L318.15,318.64L331.58,322.3L345.02,324.22L358.45,320.07L371.88,329.42L385.32,335.66L398.75,324.77L412.18,333.08L425.62,318.59L439.05,332.16L452.48,327.96L465.92,340.81L479.35,338.35L492.78,344.39L506.22,336.66L519.65,338.96L533.08,336.34L546.52,336.11L559.95,338.85" style="vector-effect: non-scaling-stroke; fill: none; stroke: rgb(86, 177, 163); stroke-opacity: 1; stroke-width: 2px; opacity: 1;"/></g><g class="points"><path class="point" transform="translate(62.92,226.47)" d="M4.33,-2.5V2.5L0,5L-4.33,2.5V-2.5L0,-5Z" style="opacity: 1; stroke-width: 0px; fill: rgb(86, 177, 163); fill-opacity: 1;"/><path class="point" transform="translate(116.65,277.28)" d="M4.33,-2.5V2.5L0,5L-4.33,2.5V-2.5L0,-5Z" style="opacity: 1; stroke-width: 0px; fill: rgb(86, 177, 163); fill-opacity: 1;"/><path class="point" transform="translate(170.38,297.57)" d="M4.33,-2.5V2.5L0,5L-4.33,2.5V-2.5L0,-5Z" style="opacity: 1; stroke-width: 0px; fill: rgb(86, 177, 163); fill-opacity: 1;"/><path class="point" transform="translate(224.12,312.76)" d="M4.33,-2.5V2.5L0,5L-4.33,2.5V-2.5L0,-5Z" style="opacity: 1; stroke-width: 0px; fill: rgb(86, 177, 163); fill-opacity: 1;"/><path class="point" transform="translate(277.85,317.01)" d="M4.33,-2.5V2.5L0,5L-4.33,2.5V-2.5L0,-5Z" style="opacity: 1; stroke-width: 0px; fill: rgb(86, 177, 163); fill-opacity: 1;"/><path class="point" transform="translate(331.58,322.3)" d="M4.33,-2.5V2.5L0,5L-4.33,2.5V-2.5L0,-5Z" style="opacity: 1; stroke-width: 0px; fill: rgb(86, 177, 163); fill-opacity: 1;"/><path class="point" transform="translate(385.32,335.66)" d="M4.33,-2.5V2.5L0,5L-4.33,2.5V-2.5L0,-5Z" style="opacity: 1; stroke-width: 0px; fill: rgb(86, 177, 163); fill-opacity: 1;"/><path class="point" transform="translate(439.05,332.16)" d="M4.33,-2.5V2.5L0,5L-4.33,2.5V-2.5L0,-5Z" style="opacity: 1; stroke-width: 0px; fill: rgb(86, 177, 163); fill-opacity: 1;"/><path class="point" transform="translate(492.78,344.39)" d="M4.33,-2.5V2.5L0,5L-4.33,2.5V-2.5L0,-5Z" style="opacity: 1; stroke-width: 0px; fill: rgb(86, 177, 163); fill-opacity: 1;"/><path class="point" transform="translate(546.52,336.11)" d="M4.33,-2.5V2.5L0,5L-4.33,2.5V-2.5L0,-5Z" style="opacity: 1; stroke-width: 0px; fill: rgb(86, 177, 163); fill-opacity: 1;"/></g><g class="text"/></g><g class="trace scatter trace5388ae" style="stroke-miterlimit: 2; opacity: 1;"><g class="fills"/><g class="errorbars"/><g class="lines"><path class="js-line" d="M36.05,92.26L49.48,172.97L62.92,207.27L76.35,234.21L89.78,256.2L103.22,268.04L116.65,274.73L130.08,281.58L143.52,286.8L156.95,297.17L170.38,309.18L183.82,306.67L197.25,304.97L210.68,317.72L224.12,320.25L237.55,316.64L250.98,326.55L264.42,333.95L277.85,331.15L291.28,337.63L304.72,332.8L318.15,340.17L331.58,342.57L345.02,342.01L358.45,339.76L371.88,337.54L385.32,340.17L398.75,344.19L412.18,336.47L425.62,349.2L439.05,351.64L452.48,348.71L465.92,352.04L479.35,358.62L492.78,360.87L506.22,355.33L519.65,356.94L533.08,358.19L546.52,354.47L559.95,359.41" style="vector-effect: non-scaling-stroke; fill: none; stroke: rgb(111, 201, 163); stroke-opacity: 1; stroke-width: 2px; opacity: 1;"/></g><g class="points"><path class="point" transform="translate(36.05,92.26)" d="M-1.92,-4.62H1.92L4.62,-1.92V1.92L1.92,4.62H-1.92L-4.62,1.92V-1.92Z" style="opacity: 1; stroke-width: 0px; fill: rgb(111, 201, 163); fill-opacity: 1;"/><path class="point" transform="translate(89.78,256.2)" d="M-1.92,-4.62H1.92L4.62,-1.92V1.92L1.92,4.62H-1.92L-4.62,1.92V-1.92Z" style="opacity: 1; stroke-width: 0px; fill: rgb(111, 201, 163); fill-opacity: 1;"/><path class="point" transform="translate(143.52,286.8)" d="M-1.92,-4.62H1.92L4.62,-1.92V1.92L1.92,4.62H-1.92L-4.62,1.92V-1.92Z" style="opacity: 1; stroke-width: 0px; fill: rgb(111, 201, 163); fill-opacity: 1;"/><path class="point" transform="translate(197.25,304.97)" d="M-1.92,-4.62H1.92L4.62,-1.92V1.92L1.92,4.62H-1.92L-4.62,1.92V-1.92Z" style="opacity: 1; stroke-width: 0px; fill: rgb(111, 201, 163); fill-opacity: 1;"/><path class="point" transform="translate(250.98,326.55)" d="M-1.92,-4.62H1.92L4.62,-1.92V1.92L1.92,4.62H-1.92L-4.62,1.92V-1.92Z" style="opacity: 1; stroke-width: 0px; fill: rgb(111, 201, 163); fill-opacity: 1;"/><path class="point" transform="translate(304.72,332.8)" d="M-1.92,-4.62H1.92L4.62,-1.92V1.92L1.92,4.62H-1.92L-4.62,1.92V-1.92Z" style="opacity: 1; stroke-width: 0px; fill: rgb(111, 201, 163); fill-opacity: 1;"/><path class="point" transform="translate(358.45,339.76)" d="M-1.92,-4.62H1.92L4.62,-1.92V1.92L1.92,4.62H-1.92L-4.62,1.92V-1.92Z" style="opacity: 1; stroke-width: 0px; fill: rgb(111, 201, 163); fill-opacity: 1;"/><path class="point" transform="translate(412.18,336.47)" d="M-1.92,-4.62H1.92L4.62,-1.92V1.92L1.92,4.62H-1.92L-4.62,1.92V-1.92Z" style="opacity: 1; stroke-width: 0px; fill: rgb(111, 201, 163); fill-opacity: 1;"/><path class="point" transform="translate(465.92,352.04)" d="M-1.92,-4.62H1.92L4.62,-1.92V1.92L1.92,4.62H-1.92L-4.62,1.92V-1.92Z" style="opacity: 1; stroke-width: 0px; fill: rgb(111, 201, 163); fill-opacity: 1;"/><path class="point" transform="translate(519.65,356.94)" d="M-1.92,-4.62H1.92L4.62,-1.92V1.92L1.92,4.62H-1.92L-4.62,1.92V-1.92Z" style="opacity: 1; stroke-width: 0px; fill: rgb(111, 201, 163); fill-opacity: 1;"/></g><g class="text"/></g><g class="trace scatter tracebd7744" style="stroke-miterlimit: 2; opacity: 1;"><g class="fills"/><g class="errorbars"/><g class="lines"><path class="js-line" d="M36.05,25.9L49.48,106.39L62.92,175.41L76.35,202.6L89.78,220.46L103.22,242.15L116.65,258.45L130.08,270.14L143.52,269.86L156.95,274.38L170.38,283.41L183.82,288.28L197.25,288.87L210.68,289.49L224.12,293.39L237.55,294.86L250.98,292.22L264.42,301.45L277.85,301.94L291.28,310.78L304.72,310.53L318.15,310.01L331.58,311.33L345.02,315.27L358.45,313.7L371.88,311.2L385.32,319.47L398.75,319.06L412.18,320.74L425.62,317.9L439.05,321.03L452.48,326.04L465.92,326.15L479.35,326.57L492.78,325.71L506.22,325.81L519.65,329.19L533.08,328.92L546.52,330.32L559.95,331.95" style="vector-effect: non-scaling-stroke; fill: none; stroke: rgb(51, 136, 102); stroke-opacity: 1; stroke-width: 2px; opacity: 1;"/></g><g class="points"><path class="point" transform="translate(62.92,175.41)" d="M-3.8,0l-1.9,-3.3h3.8l1.9,-3.3l1.9,3.3h3.8l-1.9,3.3l1.9,3.3h-3.8l-1.9,3.3l-1.9,-3.3h-3.8Z" style="opacity: 1; stroke-width: 0px; fill: rgb(51, 136, 102); fill-opacity: 1;"/><path class="point" transform="translate(116.65,258.45)" d="M-3.8,0l-1.9,-3.3h3.8l1.9,-3.3l1.9,3.3h3.8l-1.9,3.3l1.9,3.3h-3.8l-1.9,3.3l-1.9,-3.3h-3.8Z" style="opacity: 1; stroke-width: 0px; fill: rgb(51, 136, 102); fill-opacity: 1;"/><path class="point" transform="translate(170.38,283.41)" d="M-3.8,0l-1.9,-3.3h3.8l1.9,-3.3l1.9,3.3h3.8l-1.9,3.3l1.9,3.3h-3.8l-1.9,3.3l-1.9,-3.3h-3.8Z" style="opacity: 1; stroke-width: 0px; fill: rgb(51, 136, 102); fill-opacity: 1;"/><path class="point" transform="translate(224.12,293.39)" d="M-3.8,0l-1.9,-3.3h3.8l1.9,-3.3l1.9,3.3h3.8l-1.9,3.3l1.9,3.3h-3.8l-1.9,3.3l-1.9,-3.3h-3.8Z" style="opacity: 1; stroke-width: 0px; fill: rgb(51, 136, 102); fill-opacity: 1;"/><path class="point" transform="translate(277.85,301.94)" d="M-3.8,0l-1.9,-3.3h3.8l1.9,-3.3l1.9,3.3h3.8l-1.9,3.3l1.9,3.3h-3.8l-1.9,3.3l-1.9,-3.3h-3.8Z" style="opacity: 1; stroke-width: 0px; fill: rgb(51, 136, 102); fill-opacity: 1;"/><path class="point" transform="translate(331.58,311.33)" d="M-3.8,0l-1.9,-3.3h3.8l1.9,-3.3l1.9,3.3h3.8l-1.9,3.3l1.9,3.3h-3.8l-1.9,3.3l-1.9,-3.3h-3.8Z" style="opacity: 1; stroke-width: 0px; fill: rgb(51, 136, 102); fill-opacity: 1;"/><path class="point" transform="translate(385.32,319.47)" d="M-3.8,0l-1.9,-3.3h3.8l1.9,-3.3l1.9,3.3h3.8l-1.9,3.3l1.9,3.3h-3.8l-1.9,3.3l-1.9,-3.3h-3.8Z" style="opacity: 1; stroke-width: 0px; fill: rgb(51, 136, 102); fill-opacity: 1;"/><path class="point" transform="translate(439.05,321.03)" d="M-3.8,0l-1.9,-3.3h3.8l1.9,-3.3l1.9,3.3h3.8l-1.9,3.3l1.9,3.3h-3.8l-1.9,3.3l-1.9,-3.3h-3.8Z" style="opacity: 1; stroke-width: 0px; fill: rgb(51, 136, 102); fill-opacity: 1;"/><path class="point" transform="translate(492.78,325.71)" d="M-3.8,0l-1.9,-3.3h3.8l1.9,-3.3l1.9,3.3h3.8l-1.9,3.3l1.9,3.3h-3.8l-1.9,3.3l-1.9,-3.3h-3.8Z" style="opacity: 1; stroke-width: 0px; fill: rgb(51, 136, 102); fill-opacity: 1;"/><path class="point" transform="translate(546.52,330.32)" d="M-3.8,0l-1.9,-3.3h3.8l1.9,-3.3l1.9,3.3h3.8l-1.9,3.3l1.9,3.3h-3.8l-1.9,3.3l-1.9,-3.3h-3.8Z" style="opacity: 1; stroke-width: 0px; fill: rgb(51, 136, 102); fill-opacity: 1;"/></g><g class="text"/></g></g></g><g class="overplot"/><path class="xlines-above crisp" d="M84,443.5H681" style="fill: none; stroke-width: 1px; stroke: rgb(255, 255, 255); stroke-opacity: 1;"/><path class="ylines-above crisp" d="M84.5,50V443" style="fill: none; stroke-width: 1px; stroke: rgb(255, 255, 255); stroke-opacity: 1;"/><g class="overlines-above"/><g class="xaxislayer-above"><g class="xtick"><text text-anchor="middle" x="0" y="465.6" transform="translate(121.05,0)" style="font-family: 'Times New Roman'; font-size: 18px; fill: rgb(36, 36, 36); fill-opacity: 1; white-space: pre;">0</text></g><g class="xtick"><text text-anchor="middle" x="0" y="465.6" transform="translate(255.38,0)" style="font-family: 'Times New Roman'; font-size: 18px; fill: rgb(36, 36, 36); fill-opacity: 1; white-space: pre;">10</text></g><g class="xtick"><text text-anchor="middle" x="0" y="465.6" transform="translate(389.72,0)" style="font-family: 'Times New Roman'; font-size: 18px; fill: rgb(36, 36, 36); fill-opacity: 1; white-space: pre;">20</text></g><g class="xtick"><text text-anchor="middle" x="0" y="465.6" transform="translate(524.05,0)" style="font-family: 'Times New Roman'; font-size: 18px; fill: rgb(36, 36, 36); fill-opacity: 1; white-space: pre;">30</text></g><g class="xtick"><text text-anchor="middle" x="0" y="465.6" transform="translate(658.38,0)" style="font-family: 'Times New Roman'; font-size: 18px; fill: rgb(36, 36, 36); fill-opacity: 1; white-space: pre;">40</text></g></g><g class="yaxislayer-above"><g class="ytick"><text text-anchor="end" x="80.4" y="6.3" transform="translate(0,387.66)" style="font-family: 'Times New Roman'; font-size: 18px; fill: rgb(36, 36, 36); fill-opacity: 1; white-space: pre;">0.0008</text></g><g class="ytick"><text text-anchor="end" x="80.4" y="6.3" transform="translate(0,337.34)" style="font-family: 'Times New Roman'; font-size: 18px; fill: rgb(36, 36, 36); fill-opacity: 1; white-space: pre;">0.001</text></g><g class="ytick"><text text-anchor="end" x="80.4" y="6.3" transform="translate(0,296.23)" style="font-family: 'Times New Roman'; font-size: 18px; fill: rgb(36, 36, 36); fill-opacity: 1; white-space: pre;">0.0012</text></g><g class="ytick"><text text-anchor="end" x="80.4" y="6.3" transform="translate(0,261.46000000000004)" style="font-family: 'Times New Roman'; font-size: 18px; fill: rgb(36, 36, 36); fill-opacity: 1; white-space: pre;">0.0014</text></g><g class="ytick"><text text-anchor="end" x="80.4" y="6.3" transform="translate(0,231.35)" style="font-family: 'Times New Roman'; font-size: 18px; fill: rgb(36, 36, 36); fill-opacity: 1; white-space: pre;">0.0016</text></g><g class="ytick"><text text-anchor="end" x="80.4" y="6.3" transform="translate(0,204.79)" style="font-family: 'Times New Roman'; font-size: 18px; fill: rgb(36, 36, 36); fill-opacity: 1; white-space: pre;">0.0018</text></g><g class="ytick"><text text-anchor="end" x="80.4" y="6.3" transform="translate(0,181.03)" style="font-family: 'Times New Roman'; font-size: 18px; fill: rgb(36, 36, 36); fill-opacity: 1; white-space: pre;">0.002</text></g><g class="ytick"><text text-anchor="end" x="80.4" y="6.3" transform="translate(0,159.53)" style="font-family: 'Times New Roman'; font-size: 18px; fill: rgb(36, 36, 36); fill-opacity: 1; white-space: pre;">0.0022</text></g><g class="ytick"><text text-anchor="end" x="80.4" y="6.3" transform="translate(0,139.91)" style="font-family: 'Times New Roman'; font-size: 18px; fill: rgb(36, 36, 36); fill-opacity: 1; white-space: pre;">0.0024</text></g><g class="ytick"><text text-anchor="end" x="80.4" y="6.3" transform="translate(0,121.86)" style="font-family: 'Times New Roman'; font-size: 18px; fill: rgb(36, 36, 36); fill-opacity: 1; white-space: pre;">0.0026</text></g><g class="ytick"><text text-anchor="end" x="80.4" y="6.3" transform="translate(0,105.15)" style="font-family: 'Times New Roman'; font-size: 18px; fill: rgb(36, 36, 36); fill-opacity: 1; white-space: pre;">0.0028</text></g><g class="ytick"><text text-anchor="end" x="80.4" y="6.3" transform="translate(0,89.59)" style="font-family: 'Times New Roman'; font-size: 18px; fill: rgb(36, 36, 36); fill-opacity: 1; white-space: pre;">0.003</text></g><g class="ytick"><text text-anchor="end" x="80.4" y="6.3" transform="translate(0,75.03)" style="font-family: 'Times New Roman'; font-size: 18px; fill: rgb(36, 36, 36); fill-opacity: 1; white-space: pre;">0.0032</text></g><g class="ytick"><text text-anchor="end" x="80.4" y="6.3" transform="translate(0,61.36)" style="font-family: 'Times New Roman'; font-size: 18px; fill: rgb(36, 36, 36); fill-opacity: 1; white-space: pre;">0.0034</text></g></g><g class="overaxes-above"/></g></g><g class="polarlayer"/><g class="ternarylayer"/><g class="geolayer"/><g class="funnelarealayer"/><g class="pielayer"/><g class="treemaplayer"/><g class="sunburstlayer"/><g class="glimages"/><defs id="topdefs-78a69f"><g class="clips"/><clipPath id="legend78a69f"><rect width="107" height="274" x="0" y="0"/></clipPath></defs><g class="layer-above"><g class="imagelayer"/><g class="shapelayer"/></g><g class="infolayer"><g class="legend" pointer-events="all" transform="translate(692.92, 50)"><rect class="bg" shape-rendering="crispEdges" style="stroke: rgb(68, 68, 68); stroke-opacity: 1; fill: rgb(255, 255, 255); fill-opacity: 1; stroke-width: 0px;" width="107" height="274" x="0" y="0"/><g class="scrollbox" transform="translate(0, 0)" clip-path="url('#legend78a69f')"><g class="groups"><g class="traces" transform="translate(0, 18.200000000000003)" style="opacity: 1;"><text class="legendtext user-select-none" text-anchor="start" x="40" y="7.0200000000000005" style="font-family: 'Times New Roman'; font-size: 18px; fill: rgb(36, 36, 36); fill-opacity: 1; white-space: pre;">Trial411</text><g class="layers" style="opacity: 1;"><g class="legendfill"/><g class="legendlines"><path class="js-line" d="M5,0h30" style="fill: none; stroke: rgb(39, 26, 44); stroke-opacity: 1; stroke-width: 2px;"/></g><g class="legendsymbols"><g class="legendpoints"><path class="scatterpts" transform="translate(20,0)" d="M5,0A5,5 0 1,1 0,-5A5,5 0 0,1 5,0Z" style="opacity: 1; stroke-width: 0px; fill: rgb(39, 26, 44); fill-opacity: 1;"/></g></g></g><rect class="legendtoggle" pointer-events="all" x="0" y="-13.200000000000001" width="101.359375" height="26.400000000000002" style="cursor: pointer; fill: rgb(0, 0, 0); fill-opacity: 0;"/></g><g class="traces" transform="translate(0, 44.6)" style="opacity: 1;"><text class="legendtext user-select-none" text-anchor="start" x="40" y="7.0200000000000005" style="font-family: 'Times New Roman'; font-size: 18px; fill: rgb(36, 36, 36); fill-opacity: 1; white-space: pre;">Trial436</text><g class="layers" style="opacity: 1;"><g class="legendfill"/><g class="legendlines"><path class="js-line" d="M5,0h30" style="fill: none; stroke: rgb(54, 43, 77); stroke-opacity: 1; stroke-width: 2px;"/></g><g class="legendsymbols"><g class="legendpoints"><path class="scatterpts" transform="translate(20,0)" d="M5,5H-5V-5H5Z" style="opacity: 1; stroke-width: 0px; fill: rgb(54, 43, 77); fill-opacity: 1;"/></g></g></g><rect class="legendtoggle" pointer-events="all" x="0" y="-13.200000000000001" width="101.359375" height="26.400000000000002" style="cursor: pointer; fill: rgb(0, 0, 0); fill-opacity: 0;"/></g><g class="traces" transform="translate(0, 71)" style="opacity: 1;"><text class="legendtext user-select-none" text-anchor="start" x="40" y="7.0200000000000005" style="font-family: 'Times New Roman'; font-size: 18px; fill: rgb(36, 36, 36); fill-opacity: 1; white-space: pre;">Trial440</text><g class="layers" style="opacity: 1;"><g class="legendfill"/><g class="legendlines"><path class="js-line" d="M5,0h30" style="fill: none; stroke: rgb(64, 60, 115); stroke-opacity: 1; stroke-width: 2px;"/></g><g class="legendsymbols"><g class="legendpoints"><path class="scatterpts" transform="translate(20,0)" d="M6.5,0L0,6.5L-6.5,0L0,-6.5Z" style="opacity: 1; stroke-width: 0px; fill: rgb(64, 60, 115); fill-opacity: 1;"/></g></g></g><rect class="legendtoggle" pointer-events="all" x="0" y="-13.200000000000001" width="101.359375" height="26.400000000000002" style="cursor: pointer; fill: rgb(0, 0, 0); fill-opacity: 0;"/></g><g class="traces" transform="translate(0, 97.4)" style="opacity: 1;"><text class="legendtext user-select-none" text-anchor="start" x="40" y="7.0200000000000005" style="font-family: 'Times New Roman'; font-size: 18px; fill: rgb(36, 36, 36); fill-opacity: 1; white-space: pre;">Trial466</text><g class="layers" style="opacity: 1;"><g class="legendfill"/><g class="legendlines"><path class="js-line" d="M5,0h30" style="fill: none; stroke: rgb(62, 82, 143); stroke-opacity: 1; stroke-width: 2px;"/></g><g class="legendsymbols"><g class="legendpoints"><path class="scatterpts" transform="translate(20,0)" d="M6,2H2V6H-2V2H-6V-2H-2V-6H2V-2H6Z" style="opacity: 1; stroke-width: 0px; fill: rgb(62, 82, 143); fill-opacity: 1;"/></g></g></g><rect class="legendtoggle" pointer-events="all" x="0" y="-13.200000000000001" width="101.359375" height="26.400000000000002" style="cursor: pointer; fill: rgb(0, 0, 0); fill-opacity: 0;"/></g><g class="traces" transform="translate(0, 123.80000000000001)" style="opacity: 1;"><text class="legendtext user-select-none" text-anchor="start" x="40" y="7.0200000000000005" style="font-family: 'Times New Roman'; font-size: 18px; fill: rgb(36, 36, 36); fill-opacity: 1; white-space: pre;">Trial513</text><g class="layers" style="opacity: 1;"><g class="legendfill"/><g class="legendlines"><path class="js-line" d="M5,0h30" style="fill: none; stroke: rgb(62, 108, 150); stroke-opacity: 1; stroke-width: 2px;"/></g><g class="legendsymbols"><g class="legendpoints"><path class="scatterpts" transform="translate(20,0)" d="M-2.5,-5.77V5.77L5,0Z" style="opacity: 1; stroke-width: 0px; fill: rgb(62, 108, 150); fill-opacity: 1;"/></g></g></g><rect class="legendtoggle" pointer-events="all" x="0" y="-13.200000000000001" width="101.359375" height="26.400000000000002" style="cursor: pointer; fill: rgb(0, 0, 0); fill-opacity: 0;"/></g><g class="traces" transform="translate(0, 150.2)" style="opacity: 1;"><text class="legendtext user-select-none" text-anchor="start" x="40" y="7.0200000000000005" style="font-family: 'Times New Roman'; font-size: 18px; fill: rgb(36, 36, 36); fill-opacity: 1; white-space: pre;">Trial524</text><g class="layers" style="opacity: 1;"><g class="legendfill"/><g class="legendlines"><path class="js-line" d="M5,0h30" style="fill: none; stroke: rgb(68, 130, 155); stroke-opacity: 1; stroke-width: 2px;"/></g><g class="legendsymbols"><g class="legendpoints"><path class="scatterpts" transform="translate(20,0)" d="M3,-6V3H-6Z" style="opacity: 1; stroke-width: 0px; fill: rgb(68, 130, 155); fill-opacity: 1;"/></g></g></g><rect class="legendtoggle" pointer-events="all" x="0" y="-13.200000000000001" width="101.359375" height="26.400000000000002" style="cursor: pointer; fill: rgb(0, 0, 0); fill-opacity: 0;"/></g><g class="traces" transform="translate(0, 176.6)" style="opacity: 1;"><text class="legendtext user-select-none" text-anchor="start" x="40" y="7.0200000000000005" style="font-family: 'Times New Roman'; font-size: 18px; fill: rgb(36, 36, 36); fill-opacity: 1; white-space: pre;">Trial525</text><g class="layers" style="opacity: 1;"><g class="legendfill"/><g class="legendlines"><path class="js-line" d="M5,0h30" style="fill: none; stroke: rgb(76, 153, 160); stroke-opacity: 1; stroke-width: 2px;"/></g><g class="legendsymbols"><g class="legendpoints"><path class="scatterpts" transform="translate(20,0)" d="M-3,6V-3H6Z" style="opacity: 1; stroke-width: 0px; fill: rgb(76, 153, 160); fill-opacity: 1;"/></g></g></g><rect class="legendtoggle" pointer-events="all" x="0" y="-13.200000000000001" width="101.359375" height="26.400000000000002" style="cursor: pointer; fill: rgb(0, 0, 0); fill-opacity: 0;"/></g><g class="traces" transform="translate(0, 203)" style="opacity: 1;"><text class="legendtext user-select-none" text-anchor="start" x="40" y="7.0200000000000005" style="font-family: 'Times New Roman'; font-size: 18px; fill: rgb(36, 36, 36); fill-opacity: 1; white-space: pre;">Trial539</text><g class="layers" style="opacity: 1;"><g class="legendfill"/><g class="legendlines"><path class="js-line" d="M5,0h30" style="fill: none; stroke: rgb(86, 177, 163); stroke-opacity: 1; stroke-width: 2px;"/></g><g class="legendsymbols"><g class="legendpoints"><path class="scatterpts" transform="translate(20,0)" d="M4.33,-2.5V2.5L0,5L-4.33,2.5V-2.5L0,-5Z" style="opacity: 1; stroke-width: 0px; fill: rgb(86, 177, 163); fill-opacity: 1;"/></g></g></g><rect class="legendtoggle" pointer-events="all" x="0" y="-13.200000000000001" width="101.359375" height="26.400000000000002" style="cursor: pointer; fill: rgb(0, 0, 0); fill-opacity: 0;"/></g><g class="traces" transform="translate(0, 229.4)" style="opacity: 1;"><text class="legendtext user-select-none" text-anchor="start" x="40" y="7.0200000000000005" style="font-family: 'Times New Roman'; font-size: 18px; fill: rgb(36, 36, 36); fill-opacity: 1; white-space: pre;">Trial544</text><g class="layers" style="opacity: 1;"><g class="legendfill"/><g class="legendlines"><path class="js-line" d="M5,0h30" style="fill: none; stroke: rgb(111, 201, 163); stroke-opacity: 1; stroke-width: 2px;"/></g><g class="legendsymbols"><g class="legendpoints"><path class="scatterpts" transform="translate(20,0)" d="M-1.92,-4.62H1.92L4.62,-1.92V1.92L1.92,4.62H-1.92L-4.62,1.92V-1.92Z" style="opacity: 1; stroke-width: 0px; fill: rgb(111, 201, 163); fill-opacity: 1;"/></g></g></g><rect class="legendtoggle" pointer-events="all" x="0" y="-13.200000000000001" width="101.359375" height="26.400000000000002" style="cursor: pointer; fill: rgb(0, 0, 0); fill-opacity: 0;"/></g><g class="traces" transform="translate(0, 255.8)" style="opacity: 1;"><text class="legendtext user-select-none" text-anchor="start" x="40" y="7.0200000000000005" style="font-family: 'Times New Roman'; font-size: 18px; fill: rgb(36, 36, 36); fill-opacity: 1; white-space: pre;">Trial545</text><g class="layers" style="opacity: 1;"><g class="legendfill"/><g class="legendlines"><path class="js-line" d="M5,0h30" style="fill: none; stroke: rgb(51, 136, 102); stroke-opacity: 1; stroke-width: 2px;"/></g><g class="legendsymbols"><g class="legendpoints"><path class="scatterpts" transform="translate(20,0)" d="M-3.8,0l-1.9,-3.3h3.8l1.9,-3.3l1.9,3.3h3.8l-1.9,3.3l1.9,3.3h-3.8l-1.9,3.3l-1.9,-3.3h-3.8Z" style="opacity: 1; stroke-width: 0px; fill: rgb(51, 136, 102); fill-opacity: 1;"/></g></g></g><rect class="legendtoggle" pointer-events="all" x="0" y="-13.200000000000001" width="101.359375" height="26.400000000000002" style="cursor: pointer; fill: rgb(0, 0, 0); fill-opacity: 0;"/></g></g></g><rect class="scrollbar" rx="20" ry="3" width="0" height="0" style="fill: rgb(128, 139, 164); fill-opacity: 1;" x="0" y="0"/></g><g class="g-gtitle"><text class="gtitle" x="400" y="10" text-anchor="middle" dy="0.7em" style="font-family: 'Times New Roman'; font-size: 30px; fill: rgb(36, 36, 36); opacity: 1; font-weight: normal; white-space: pre;">Loss Per Training Step</text></g><g class="g-xtitle" transform="translate(0,-5.009374999999977)"><text class="xtitle" x="383" y="500.009375" text-anchor="middle" style="font-family: 'Times New Roman'; font-size: 22px; fill: rgb(36, 36, 36); opacity: 1; font-weight: normal; white-space: pre;">Step</text></g><g class="g-ytitle" transform="translate(19.509765625,0)"><text class="ytitle" transform="rotate(-90,0.4906249999999943,246.5)" x="0.4906249999999943" y="246.5" text-anchor="middle" style="font-family: 'Times New Roman'; font-size: 22px; fill: rgb(36, 36, 36); opacity: 1; font-weight: normal; white-space: pre;">Loss</text></g></g></svg>